<mxfile host="app.diagrams.net" modified="2023-06-01T01:48:38.644Z" agent="Mozilla/5.0 (Windows NT 10.0; Win64; x64) AppleWebKit/537.36 (KHTML, like Gecko) Chrome/113.0.0.0 Safari/537.36" etag="Hzsb_rxr9hi5_DlDd8i0" version="21.3.6" type="device">
  <diagram name="Trang-1" id="x630_gOpwR3_4VLiRWL4">
    <mxGraphModel dx="1313" dy="3064" grid="1" gridSize="10" guides="1" tooltips="1" connect="1" arrows="1" fold="1" page="1" pageScale="1" pageWidth="827" pageHeight="1169" math="0" shadow="0">
      <root>
        <mxCell id="0" />
        <mxCell id="1" parent="0" />
        <mxCell id="_CsmnxEu2QW9fXy3xSoc-1" value="" style="swimlane;startSize=0;" vertex="1" parent="1">
          <mxGeometry x="160" y="-880" width="540" height="670" as="geometry" />
        </mxCell>
        <mxCell id="_CsmnxEu2QW9fXy3xSoc-2" value="Xem Thông Tin" style="ellipse;whiteSpace=wrap;html=1;" vertex="1" parent="_CsmnxEu2QW9fXy3xSoc-1">
          <mxGeometry x="80" y="160" width="120" height="80" as="geometry" />
        </mxCell>
        <mxCell id="_CsmnxEu2QW9fXy3xSoc-3" value="Tìm Kiếm" style="ellipse;whiteSpace=wrap;html=1;" vertex="1" parent="_CsmnxEu2QW9fXy3xSoc-1">
          <mxGeometry x="80" y="440" width="120" height="80" as="geometry" />
        </mxCell>
        <mxCell id="_CsmnxEu2QW9fXy3xSoc-4" value="Đăng Ký Tài Khoản" style="ellipse;whiteSpace=wrap;html=1;" vertex="1" parent="_CsmnxEu2QW9fXy3xSoc-1">
          <mxGeometry x="80" y="560" width="120" height="80" as="geometry" />
        </mxCell>
        <mxCell id="_CsmnxEu2QW9fXy3xSoc-254" value="Xem Thông Tin Phòng" style="ellipse;whiteSpace=wrap;html=1;" vertex="1" parent="_CsmnxEu2QW9fXy3xSoc-1">
          <mxGeometry x="280" y="40" width="120" height="80" as="geometry" />
        </mxCell>
        <mxCell id="_CsmnxEu2QW9fXy3xSoc-255" value="Xem Thông Tin Dịch Vụ" style="ellipse;whiteSpace=wrap;html=1;" vertex="1" parent="_CsmnxEu2QW9fXy3xSoc-1">
          <mxGeometry x="280" y="160" width="120" height="80" as="geometry" />
        </mxCell>
        <mxCell id="_CsmnxEu2QW9fXy3xSoc-256" value="Xem Thông Tin Liên Hệ Resort" style="ellipse;whiteSpace=wrap;html=1;" vertex="1" parent="_CsmnxEu2QW9fXy3xSoc-1">
          <mxGeometry x="280" y="280" width="120" height="80" as="geometry" />
        </mxCell>
        <mxCell id="_CsmnxEu2QW9fXy3xSoc-257" value="Xem Thông Tin Về Resort" style="ellipse;whiteSpace=wrap;html=1;" vertex="1" parent="_CsmnxEu2QW9fXy3xSoc-1">
          <mxGeometry x="280" y="400" width="120" height="80" as="geometry" />
        </mxCell>
        <mxCell id="_CsmnxEu2QW9fXy3xSoc-258" value="&amp;lt;&amp;lt;extends&amp;gt;&amp;gt;" style="endArrow=none;html=1;rounded=0;exitX=0.5;exitY=0;exitDx=0;exitDy=0;entryX=0;entryY=0.5;entryDx=0;entryDy=0;dashed=1;startArrow=open;startFill=0;" edge="1" parent="_CsmnxEu2QW9fXy3xSoc-1" target="_CsmnxEu2QW9fXy3xSoc-254" source="_CsmnxEu2QW9fXy3xSoc-2">
          <mxGeometry width="50" height="50" relative="1" as="geometry">
            <mxPoint x="230" y="240" as="sourcePoint" />
            <mxPoint x="270" y="80" as="targetPoint" />
          </mxGeometry>
        </mxCell>
        <mxCell id="_CsmnxEu2QW9fXy3xSoc-259" value="&amp;lt;&amp;lt;extends&amp;gt;&amp;gt;" style="endArrow=none;html=1;rounded=0;exitX=1;exitY=0.5;exitDx=0;exitDy=0;entryX=0;entryY=0.5;entryDx=0;entryDy=0;dashed=1;startArrow=open;startFill=0;" edge="1" parent="_CsmnxEu2QW9fXy3xSoc-1" target="_CsmnxEu2QW9fXy3xSoc-255" source="_CsmnxEu2QW9fXy3xSoc-2">
          <mxGeometry width="50" height="50" relative="1" as="geometry">
            <mxPoint x="230" y="240" as="sourcePoint" />
            <mxPoint x="310" y="280" as="targetPoint" />
          </mxGeometry>
        </mxCell>
        <mxCell id="_CsmnxEu2QW9fXy3xSoc-260" value="&amp;lt;&amp;lt;extends&amp;gt;&amp;gt;" style="endArrow=none;html=1;rounded=0;exitX=1;exitY=1;exitDx=0;exitDy=0;entryX=0;entryY=0.5;entryDx=0;entryDy=0;dashed=1;startArrow=open;startFill=0;" edge="1" parent="_CsmnxEu2QW9fXy3xSoc-1" target="_CsmnxEu2QW9fXy3xSoc-256" source="_CsmnxEu2QW9fXy3xSoc-2">
          <mxGeometry width="50" height="50" relative="1" as="geometry">
            <mxPoint x="230" y="240" as="sourcePoint" />
            <mxPoint x="310" y="320" as="targetPoint" />
          </mxGeometry>
        </mxCell>
        <mxCell id="_CsmnxEu2QW9fXy3xSoc-261" value="&amp;lt;&amp;lt;extends&amp;gt;&amp;gt;" style="endArrow=none;html=1;rounded=0;exitX=0.5;exitY=1;exitDx=0;exitDy=0;entryX=0;entryY=0.5;entryDx=0;entryDy=0;dashed=1;startArrow=open;startFill=0;" edge="1" parent="_CsmnxEu2QW9fXy3xSoc-1" target="_CsmnxEu2QW9fXy3xSoc-257" source="_CsmnxEu2QW9fXy3xSoc-2">
          <mxGeometry width="50" height="50" relative="1" as="geometry">
            <mxPoint x="230" y="240" as="sourcePoint" />
            <mxPoint x="270" y="350" as="targetPoint" />
          </mxGeometry>
        </mxCell>
        <mxCell id="_CsmnxEu2QW9fXy3xSoc-5" value="Guest" style="shape=umlActor;verticalLabelPosition=bottom;verticalAlign=top;html=1;outlineConnect=0;" vertex="1" parent="1">
          <mxGeometry x="40" y="-580" width="30" height="60" as="geometry" />
        </mxCell>
        <mxCell id="_CsmnxEu2QW9fXy3xSoc-6" value="" style="endArrow=none;html=1;rounded=0;exitX=1;exitY=0.3333333333333333;exitDx=0;exitDy=0;exitPerimeter=0;entryX=0;entryY=0.5;entryDx=0;entryDy=0;" edge="1" parent="1" source="_CsmnxEu2QW9fXy3xSoc-5" target="_CsmnxEu2QW9fXy3xSoc-2">
          <mxGeometry width="50" height="50" relative="1" as="geometry">
            <mxPoint x="100" y="220" as="sourcePoint" />
            <mxPoint x="150" y="170" as="targetPoint" />
          </mxGeometry>
        </mxCell>
        <mxCell id="_CsmnxEu2QW9fXy3xSoc-7" value="" style="endArrow=none;html=1;rounded=0;exitX=1;exitY=0.3333333333333333;exitDx=0;exitDy=0;exitPerimeter=0;entryX=0;entryY=0.5;entryDx=0;entryDy=0;" edge="1" parent="1" source="_CsmnxEu2QW9fXy3xSoc-5" target="_CsmnxEu2QW9fXy3xSoc-3">
          <mxGeometry width="50" height="50" relative="1" as="geometry">
            <mxPoint x="130" y="410" as="sourcePoint" />
            <mxPoint x="180" y="360" as="targetPoint" />
          </mxGeometry>
        </mxCell>
        <mxCell id="_CsmnxEu2QW9fXy3xSoc-8" value="" style="endArrow=none;html=1;rounded=0;exitX=1;exitY=0.3333333333333333;exitDx=0;exitDy=0;exitPerimeter=0;entryX=-0.01;entryY=0.413;entryDx=0;entryDy=0;entryPerimeter=0;" edge="1" parent="1" source="_CsmnxEu2QW9fXy3xSoc-5" target="_CsmnxEu2QW9fXy3xSoc-4">
          <mxGeometry width="50" height="50" relative="1" as="geometry">
            <mxPoint x="150" y="420" as="sourcePoint" />
            <mxPoint x="200" y="370" as="targetPoint" />
          </mxGeometry>
        </mxCell>
        <mxCell id="_CsmnxEu2QW9fXy3xSoc-9" value="" style="swimlane;startSize=0;" vertex="1" parent="1">
          <mxGeometry x="200" y="280" width="610" height="840" as="geometry" />
        </mxCell>
        <mxCell id="_CsmnxEu2QW9fXy3xSoc-10" value="Đăng Ký Phòng" style="ellipse;whiteSpace=wrap;html=1;" vertex="1" parent="_CsmnxEu2QW9fXy3xSoc-9">
          <mxGeometry x="80" y="320" width="120" height="80" as="geometry" />
        </mxCell>
        <mxCell id="_CsmnxEu2QW9fXy3xSoc-11" value="Đăng Ký Dịch Vụ" style="ellipse;whiteSpace=wrap;html=1;" vertex="1" parent="_CsmnxEu2QW9fXy3xSoc-9">
          <mxGeometry x="80" y="440" width="120" height="80" as="geometry" />
        </mxCell>
        <mxCell id="_CsmnxEu2QW9fXy3xSoc-12" value="Kiểm Tra Thông Tin Đăng Ký" style="ellipse;whiteSpace=wrap;html=1;" vertex="1" parent="_CsmnxEu2QW9fXy3xSoc-9">
          <mxGeometry x="80" y="560" width="120" height="80" as="geometry" />
        </mxCell>
        <mxCell id="_CsmnxEu2QW9fXy3xSoc-13" value="Yêu Cầu Hủy Phòng, Hủy Dịch Vụ" style="ellipse;whiteSpace=wrap;html=1;" vertex="1" parent="_CsmnxEu2QW9fXy3xSoc-9">
          <mxGeometry x="80" y="680" width="120" height="80" as="geometry" />
        </mxCell>
        <mxCell id="_CsmnxEu2QW9fXy3xSoc-14" value="Đăng Nhập" style="ellipse;whiteSpace=wrap;html=1;" vertex="1" parent="_CsmnxEu2QW9fXy3xSoc-9">
          <mxGeometry x="80" y="80" width="120" height="80" as="geometry" />
        </mxCell>
        <mxCell id="_CsmnxEu2QW9fXy3xSoc-15" value="Quản Lý Thông Tin Tài Khoản" style="ellipse;whiteSpace=wrap;html=1;" vertex="1" parent="_CsmnxEu2QW9fXy3xSoc-9">
          <mxGeometry x="80" y="200" width="120" height="80" as="geometry" />
        </mxCell>
        <mxCell id="_CsmnxEu2QW9fXy3xSoc-16" value="Sửa Thông Tin Cá Nhân" style="ellipse;whiteSpace=wrap;html=1;" vertex="1" parent="_CsmnxEu2QW9fXy3xSoc-9">
          <mxGeometry x="320" y="160" width="120" height="80" as="geometry" />
        </mxCell>
        <mxCell id="_CsmnxEu2QW9fXy3xSoc-17" value="Đổi Mật Khẩu" style="ellipse;whiteSpace=wrap;html=1;" vertex="1" parent="_CsmnxEu2QW9fXy3xSoc-9">
          <mxGeometry x="320" y="280" width="120" height="80" as="geometry" />
        </mxCell>
        <mxCell id="_CsmnxEu2QW9fXy3xSoc-18" value="&amp;lt;&amp;lt;extends&amp;gt;&amp;gt;" style="endArrow=none;html=1;rounded=0;exitX=1;exitY=0.5;exitDx=0;exitDy=0;entryX=0;entryY=0.5;entryDx=0;entryDy=0;startArrow=open;startFill=0;dashed=1;" edge="1" parent="_CsmnxEu2QW9fXy3xSoc-9" source="_CsmnxEu2QW9fXy3xSoc-15" target="_CsmnxEu2QW9fXy3xSoc-16">
          <mxGeometry width="50" height="50" relative="1" as="geometry">
            <mxPoint x="230" y="180" as="sourcePoint" />
            <mxPoint x="280" y="130" as="targetPoint" />
          </mxGeometry>
        </mxCell>
        <mxCell id="_CsmnxEu2QW9fXy3xSoc-19" value="&amp;lt;&amp;lt;extends&amp;gt;&amp;gt;" style="endArrow=none;html=1;rounded=0;exitX=1;exitY=0.5;exitDx=0;exitDy=0;entryX=0;entryY=0.5;entryDx=0;entryDy=0;dashed=1;startArrow=open;startFill=0;" edge="1" parent="_CsmnxEu2QW9fXy3xSoc-9" source="_CsmnxEu2QW9fXy3xSoc-15" target="_CsmnxEu2QW9fXy3xSoc-17">
          <mxGeometry width="50" height="50" relative="1" as="geometry">
            <mxPoint x="230" y="240" as="sourcePoint" />
            <mxPoint x="280" y="190" as="targetPoint" />
          </mxGeometry>
        </mxCell>
        <mxCell id="_CsmnxEu2QW9fXy3xSoc-20" value="Customer" style="shape=umlActor;verticalLabelPosition=bottom;verticalAlign=top;html=1;outlineConnect=0;" vertex="1" parent="1">
          <mxGeometry x="70" y="710" width="30" height="60" as="geometry" />
        </mxCell>
        <mxCell id="_CsmnxEu2QW9fXy3xSoc-21" value="" style="endArrow=none;html=1;rounded=0;exitX=1;exitY=0.3333333333333333;exitDx=0;exitDy=0;exitPerimeter=0;entryX=0;entryY=0.5;entryDx=0;entryDy=0;" edge="1" parent="1" source="_CsmnxEu2QW9fXy3xSoc-20" target="_CsmnxEu2QW9fXy3xSoc-10">
          <mxGeometry width="50" height="50" relative="1" as="geometry">
            <mxPoint x="150" y="780" as="sourcePoint" />
            <mxPoint x="200" y="730" as="targetPoint" />
          </mxGeometry>
        </mxCell>
        <mxCell id="_CsmnxEu2QW9fXy3xSoc-22" value="" style="endArrow=none;html=1;rounded=0;exitX=1;exitY=0.3333333333333333;exitDx=0;exitDy=0;exitPerimeter=0;entryX=0;entryY=0.5;entryDx=0;entryDy=0;" edge="1" parent="1" source="_CsmnxEu2QW9fXy3xSoc-20" target="_CsmnxEu2QW9fXy3xSoc-11">
          <mxGeometry width="50" height="50" relative="1" as="geometry">
            <mxPoint x="110" y="760" as="sourcePoint" />
            <mxPoint x="160" y="710" as="targetPoint" />
          </mxGeometry>
        </mxCell>
        <mxCell id="_CsmnxEu2QW9fXy3xSoc-23" value="" style="endArrow=none;html=1;rounded=0;exitX=1;exitY=0.3333333333333333;exitDx=0;exitDy=0;exitPerimeter=0;entryX=0;entryY=0.5;entryDx=0;entryDy=0;" edge="1" parent="1" source="_CsmnxEu2QW9fXy3xSoc-20" target="_CsmnxEu2QW9fXy3xSoc-12">
          <mxGeometry width="50" height="50" relative="1" as="geometry">
            <mxPoint x="90" y="1030" as="sourcePoint" />
            <mxPoint x="140" y="980" as="targetPoint" />
          </mxGeometry>
        </mxCell>
        <mxCell id="_CsmnxEu2QW9fXy3xSoc-24" value="" style="endArrow=none;html=1;rounded=0;exitX=1;exitY=0.3333333333333333;exitDx=0;exitDy=0;exitPerimeter=0;entryX=0;entryY=0.5;entryDx=0;entryDy=0;" edge="1" parent="1" source="_CsmnxEu2QW9fXy3xSoc-20" target="_CsmnxEu2QW9fXy3xSoc-13">
          <mxGeometry width="50" height="50" relative="1" as="geometry">
            <mxPoint x="130" y="1060" as="sourcePoint" />
            <mxPoint x="180" y="1010" as="targetPoint" />
          </mxGeometry>
        </mxCell>
        <mxCell id="_CsmnxEu2QW9fXy3xSoc-25" value="" style="endArrow=none;html=1;rounded=0;exitX=1;exitY=0.3333333333333333;exitDx=0;exitDy=0;exitPerimeter=0;entryX=0;entryY=0.5;entryDx=0;entryDy=0;" edge="1" parent="1" source="_CsmnxEu2QW9fXy3xSoc-20" target="_CsmnxEu2QW9fXy3xSoc-14">
          <mxGeometry width="50" height="50" relative="1" as="geometry">
            <mxPoint x="140" y="720" as="sourcePoint" />
            <mxPoint x="190" y="670" as="targetPoint" />
          </mxGeometry>
        </mxCell>
        <mxCell id="_CsmnxEu2QW9fXy3xSoc-26" value="" style="endArrow=none;html=1;rounded=0;exitX=1;exitY=0.3333333333333333;exitDx=0;exitDy=0;exitPerimeter=0;entryX=0;entryY=0.5;entryDx=0;entryDy=0;" edge="1" parent="1" source="_CsmnxEu2QW9fXy3xSoc-20" target="_CsmnxEu2QW9fXy3xSoc-15">
          <mxGeometry width="50" height="50" relative="1" as="geometry">
            <mxPoint x="120" y="720" as="sourcePoint" />
            <mxPoint x="170" y="670" as="targetPoint" />
          </mxGeometry>
        </mxCell>
        <mxCell id="_CsmnxEu2QW9fXy3xSoc-27" value="" style="swimlane;startSize=0;" vertex="1" parent="1">
          <mxGeometry x="1080" y="280" width="310" height="560" as="geometry" />
        </mxCell>
        <mxCell id="_CsmnxEu2QW9fXy3xSoc-28" value="CRUD Tài Khoản Nhân Viên" style="ellipse;whiteSpace=wrap;html=1;" vertex="1" parent="_CsmnxEu2QW9fXy3xSoc-27">
          <mxGeometry x="80" y="400" width="120" height="80" as="geometry" />
        </mxCell>
        <mxCell id="_CsmnxEu2QW9fXy3xSoc-29" value="CRUD Room, Dịch Vụ" style="ellipse;whiteSpace=wrap;html=1;" vertex="1" parent="_CsmnxEu2QW9fXy3xSoc-27">
          <mxGeometry x="80" y="240" width="120" height="80" as="geometry" />
        </mxCell>
        <mxCell id="_CsmnxEu2QW9fXy3xSoc-30" value="Đăng Nhập" style="ellipse;whiteSpace=wrap;html=1;" vertex="1" parent="_CsmnxEu2QW9fXy3xSoc-27">
          <mxGeometry x="80" y="80" width="120" height="80" as="geometry" />
        </mxCell>
        <mxCell id="_CsmnxEu2QW9fXy3xSoc-31" value="Admin" style="shape=umlActor;verticalLabelPosition=bottom;verticalAlign=top;html=1;outlineConnect=0;" vertex="1" parent="1">
          <mxGeometry x="930" y="525" width="30" height="60" as="geometry" />
        </mxCell>
        <mxCell id="_CsmnxEu2QW9fXy3xSoc-32" value="" style="swimlane;startSize=0;" vertex="1" parent="1">
          <mxGeometry x="1080" y="-940" width="520" height="940" as="geometry" />
        </mxCell>
        <mxCell id="_CsmnxEu2QW9fXy3xSoc-33" value="Xem Lịch Làm Việc" style="ellipse;whiteSpace=wrap;html=1;" vertex="1" parent="_CsmnxEu2QW9fXy3xSoc-32">
          <mxGeometry x="80" y="260" width="120" height="80" as="geometry" />
        </mxCell>
        <mxCell id="_CsmnxEu2QW9fXy3xSoc-34" value="Đăng Nhập" style="ellipse;whiteSpace=wrap;html=1;" vertex="1" parent="_CsmnxEu2QW9fXy3xSoc-32">
          <mxGeometry x="80" y="20" width="120" height="80" as="geometry" />
        </mxCell>
        <mxCell id="_CsmnxEu2QW9fXy3xSoc-35" value="Xem Phòng, Đăng Ký Phòng" style="ellipse;whiteSpace=wrap;html=1;" vertex="1" parent="_CsmnxEu2QW9fXy3xSoc-32">
          <mxGeometry x="80" y="500" width="120" height="80" as="geometry" />
        </mxCell>
        <mxCell id="_CsmnxEu2QW9fXy3xSoc-36" value="Xem Dịch Vụ, Đăng Ký Dịch Vụ" style="ellipse;whiteSpace=wrap;html=1;" vertex="1" parent="_CsmnxEu2QW9fXy3xSoc-32">
          <mxGeometry x="80" y="620" width="120" height="80" as="geometry" />
        </mxCell>
        <mxCell id="_CsmnxEu2QW9fXy3xSoc-37" value="Kiểm Tra Thông Tin Khách Hàng" style="ellipse;whiteSpace=wrap;html=1;" vertex="1" parent="_CsmnxEu2QW9fXy3xSoc-32">
          <mxGeometry x="80" y="740" width="120" height="80" as="geometry" />
        </mxCell>
        <mxCell id="_CsmnxEu2QW9fXy3xSoc-38" value="Kiểm Tra Room, Dịch Vụ Khách Hàng Đăng Ký" style="ellipse;whiteSpace=wrap;html=1;" vertex="1" parent="_CsmnxEu2QW9fXy3xSoc-32">
          <mxGeometry x="320" y="820" width="120" height="80" as="geometry" />
        </mxCell>
        <mxCell id="_CsmnxEu2QW9fXy3xSoc-39" value="&amp;lt;&amp;lt;extends&amp;gt;&amp;gt;" style="endArrow=none;html=1;rounded=0;exitX=1;exitY=0.5;exitDx=0;exitDy=0;entryX=0;entryY=0.5;entryDx=0;entryDy=0;dashed=1;startArrow=open;startFill=0;" edge="1" parent="_CsmnxEu2QW9fXy3xSoc-32" source="_CsmnxEu2QW9fXy3xSoc-37" target="_CsmnxEu2QW9fXy3xSoc-38">
          <mxGeometry width="50" height="50" relative="1" as="geometry">
            <mxPoint x="230" y="630" as="sourcePoint" />
            <mxPoint x="280" y="580" as="targetPoint" />
          </mxGeometry>
        </mxCell>
        <mxCell id="_CsmnxEu2QW9fXy3xSoc-40" value="Kiểm Tra Thông Tin Cá Nhân Khách Hàng" style="ellipse;whiteSpace=wrap;html=1;" vertex="1" parent="_CsmnxEu2QW9fXy3xSoc-32">
          <mxGeometry x="320" y="700" width="120" height="80" as="geometry" />
        </mxCell>
        <mxCell id="_CsmnxEu2QW9fXy3xSoc-41" value="&amp;lt;&amp;lt;extends&amp;gt;&amp;gt;" style="endArrow=none;html=1;rounded=0;exitX=1;exitY=0.5;exitDx=0;exitDy=0;entryX=0;entryY=0.5;entryDx=0;entryDy=0;dashed=1;startArrow=open;startFill=0;" edge="1" parent="_CsmnxEu2QW9fXy3xSoc-32" source="_CsmnxEu2QW9fXy3xSoc-37" target="_CsmnxEu2QW9fXy3xSoc-40">
          <mxGeometry width="50" height="50" relative="1" as="geometry">
            <mxPoint x="200" y="830" as="sourcePoint" />
            <mxPoint x="250" y="780" as="targetPoint" />
          </mxGeometry>
        </mxCell>
        <mxCell id="_CsmnxEu2QW9fXy3xSoc-42" value="In Hóa Đơn" style="ellipse;whiteSpace=wrap;html=1;" vertex="1" parent="_CsmnxEu2QW9fXy3xSoc-32">
          <mxGeometry x="80" y="380" width="120" height="80" as="geometry" />
        </mxCell>
        <mxCell id="_CsmnxEu2QW9fXy3xSoc-43" value="Quản Lý Tài Khoản" style="ellipse;whiteSpace=wrap;html=1;" vertex="1" parent="_CsmnxEu2QW9fXy3xSoc-32">
          <mxGeometry x="80" y="140" width="120" height="80" as="geometry" />
        </mxCell>
        <mxCell id="_CsmnxEu2QW9fXy3xSoc-44" value="Đổi Mật Khẩu" style="ellipse;whiteSpace=wrap;html=1;" vertex="1" parent="_CsmnxEu2QW9fXy3xSoc-32">
          <mxGeometry x="320" y="180" width="120" height="80" as="geometry" />
        </mxCell>
        <mxCell id="_CsmnxEu2QW9fXy3xSoc-45" value="&amp;lt;&amp;lt;extends&amp;gt;&amp;gt;" style="endArrow=none;html=1;rounded=0;exitX=1;exitY=0.5;exitDx=0;exitDy=0;entryX=0;entryY=0.5;entryDx=0;entryDy=0;dashed=1;startArrow=open;startFill=0;" edge="1" parent="_CsmnxEu2QW9fXy3xSoc-32" source="_CsmnxEu2QW9fXy3xSoc-43" target="_CsmnxEu2QW9fXy3xSoc-44">
          <mxGeometry width="50" height="50" relative="1" as="geometry">
            <mxPoint x="270" y="240" as="sourcePoint" />
            <mxPoint x="320" y="190" as="targetPoint" />
          </mxGeometry>
        </mxCell>
        <mxCell id="_CsmnxEu2QW9fXy3xSoc-46" value="Xem Thông Tin Cá Nhân" style="ellipse;whiteSpace=wrap;html=1;" vertex="1" parent="_CsmnxEu2QW9fXy3xSoc-32">
          <mxGeometry x="320" y="60" width="120" height="80" as="geometry" />
        </mxCell>
        <mxCell id="_CsmnxEu2QW9fXy3xSoc-47" value="&amp;lt;&amp;lt;extends&amp;gt;&amp;gt;" style="endArrow=none;html=1;rounded=0;exitX=1;exitY=0;exitDx=0;exitDy=0;entryX=0;entryY=0.5;entryDx=0;entryDy=0;dashed=1;startArrow=open;startFill=0;" edge="1" parent="_CsmnxEu2QW9fXy3xSoc-32" source="_CsmnxEu2QW9fXy3xSoc-43" target="_CsmnxEu2QW9fXy3xSoc-46">
          <mxGeometry width="50" height="50" relative="1" as="geometry">
            <mxPoint x="250" y="120" as="sourcePoint" />
            <mxPoint x="300" y="70" as="targetPoint" />
          </mxGeometry>
        </mxCell>
        <mxCell id="_CsmnxEu2QW9fXy3xSoc-48" value="Employee" style="shape=umlActor;verticalLabelPosition=bottom;verticalAlign=top;html=1;outlineConnect=0;" vertex="1" parent="1">
          <mxGeometry x="880" y="-580" width="30" height="60" as="geometry" />
        </mxCell>
        <mxCell id="_CsmnxEu2QW9fXy3xSoc-49" value="" style="endArrow=none;html=1;rounded=0;exitX=1;exitY=0.3333333333333333;exitDx=0;exitDy=0;exitPerimeter=0;entryX=0;entryY=0.5;entryDx=0;entryDy=0;" edge="1" parent="1" source="_CsmnxEu2QW9fXy3xSoc-48" target="_CsmnxEu2QW9fXy3xSoc-34">
          <mxGeometry width="50" height="50" relative="1" as="geometry">
            <mxPoint x="1020" y="-750" as="sourcePoint" />
            <mxPoint x="1070" y="-800" as="targetPoint" />
          </mxGeometry>
        </mxCell>
        <mxCell id="_CsmnxEu2QW9fXy3xSoc-50" value="" style="endArrow=none;html=1;rounded=0;exitX=1;exitY=0.3333333333333333;exitDx=0;exitDy=0;exitPerimeter=0;entryX=0;entryY=0.5;entryDx=0;entryDy=0;" edge="1" parent="1" source="_CsmnxEu2QW9fXy3xSoc-48" target="_CsmnxEu2QW9fXy3xSoc-33">
          <mxGeometry width="50" height="50" relative="1" as="geometry">
            <mxPoint x="980" y="-560" as="sourcePoint" />
            <mxPoint x="1030" y="-610" as="targetPoint" />
          </mxGeometry>
        </mxCell>
        <mxCell id="_CsmnxEu2QW9fXy3xSoc-51" value="" style="endArrow=none;html=1;rounded=0;exitX=1;exitY=0.3333333333333333;exitDx=0;exitDy=0;exitPerimeter=0;entryX=0;entryY=0.5;entryDx=0;entryDy=0;" edge="1" parent="1" source="_CsmnxEu2QW9fXy3xSoc-48" target="_CsmnxEu2QW9fXy3xSoc-42">
          <mxGeometry width="50" height="50" relative="1" as="geometry">
            <mxPoint x="970" y="-560" as="sourcePoint" />
            <mxPoint x="1020" y="-610" as="targetPoint" />
          </mxGeometry>
        </mxCell>
        <mxCell id="_CsmnxEu2QW9fXy3xSoc-52" value="" style="endArrow=none;html=1;rounded=0;exitX=1;exitY=0.3333333333333333;exitDx=0;exitDy=0;exitPerimeter=0;entryX=0;entryY=0.5;entryDx=0;entryDy=0;" edge="1" parent="1" source="_CsmnxEu2QW9fXy3xSoc-48" target="_CsmnxEu2QW9fXy3xSoc-35">
          <mxGeometry width="50" height="50" relative="1" as="geometry">
            <mxPoint x="1040" y="-480" as="sourcePoint" />
            <mxPoint x="1090" y="-530" as="targetPoint" />
          </mxGeometry>
        </mxCell>
        <mxCell id="_CsmnxEu2QW9fXy3xSoc-53" value="" style="endArrow=none;html=1;rounded=0;exitX=1;exitY=0.3333333333333333;exitDx=0;exitDy=0;exitPerimeter=0;entryX=0;entryY=0.5;entryDx=0;entryDy=0;" edge="1" parent="1" source="_CsmnxEu2QW9fXy3xSoc-48" target="_CsmnxEu2QW9fXy3xSoc-36">
          <mxGeometry width="50" height="50" relative="1" as="geometry">
            <mxPoint x="1010" y="-450" as="sourcePoint" />
            <mxPoint x="1060" y="-500" as="targetPoint" />
          </mxGeometry>
        </mxCell>
        <mxCell id="_CsmnxEu2QW9fXy3xSoc-54" value="" style="endArrow=none;html=1;rounded=0;exitX=1;exitY=0.3333333333333333;exitDx=0;exitDy=0;exitPerimeter=0;entryX=0;entryY=0.5;entryDx=0;entryDy=0;" edge="1" parent="1" source="_CsmnxEu2QW9fXy3xSoc-48" target="_CsmnxEu2QW9fXy3xSoc-37">
          <mxGeometry width="50" height="50" relative="1" as="geometry">
            <mxPoint x="990" y="-400" as="sourcePoint" />
            <mxPoint x="1040" y="-450" as="targetPoint" />
          </mxGeometry>
        </mxCell>
        <mxCell id="_CsmnxEu2QW9fXy3xSoc-55" value="" style="endArrow=none;html=1;rounded=0;exitX=1;exitY=0.3333333333333333;exitDx=0;exitDy=0;exitPerimeter=0;entryX=0;entryY=0.5;entryDx=0;entryDy=0;" edge="1" parent="1" source="_CsmnxEu2QW9fXy3xSoc-31" target="_CsmnxEu2QW9fXy3xSoc-30">
          <mxGeometry width="50" height="50" relative="1" as="geometry">
            <mxPoint x="1020" y="450" as="sourcePoint" />
            <mxPoint x="1070" y="400" as="targetPoint" />
          </mxGeometry>
        </mxCell>
        <mxCell id="_CsmnxEu2QW9fXy3xSoc-56" value="" style="endArrow=none;html=1;rounded=0;exitX=1;exitY=0.3333333333333333;exitDx=0;exitDy=0;exitPerimeter=0;entryX=0;entryY=0.5;entryDx=0;entryDy=0;" edge="1" parent="1" source="_CsmnxEu2QW9fXy3xSoc-31" target="_CsmnxEu2QW9fXy3xSoc-29">
          <mxGeometry width="50" height="50" relative="1" as="geometry">
            <mxPoint x="1020" y="630" as="sourcePoint" />
            <mxPoint x="1070" y="580" as="targetPoint" />
          </mxGeometry>
        </mxCell>
        <mxCell id="_CsmnxEu2QW9fXy3xSoc-57" value="" style="endArrow=none;html=1;rounded=0;exitX=1;exitY=0.3333333333333333;exitDx=0;exitDy=0;exitPerimeter=0;entryX=0;entryY=0.5;entryDx=0;entryDy=0;" edge="1" parent="1" source="_CsmnxEu2QW9fXy3xSoc-31" target="_CsmnxEu2QW9fXy3xSoc-28">
          <mxGeometry width="50" height="50" relative="1" as="geometry">
            <mxPoint x="930" y="770" as="sourcePoint" />
            <mxPoint x="980" y="720" as="targetPoint" />
          </mxGeometry>
        </mxCell>
        <mxCell id="_CsmnxEu2QW9fXy3xSoc-58" value="" style="swimlane;startSize=0;" vertex="1" parent="1">
          <mxGeometry x="1841" y="-960" width="519" height="520" as="geometry" />
        </mxCell>
        <mxCell id="_CsmnxEu2QW9fXy3xSoc-59" value="Đăng Nhập" style="ellipse;whiteSpace=wrap;html=1;" vertex="1" parent="_CsmnxEu2QW9fXy3xSoc-58">
          <mxGeometry x="80" y="40" width="120" height="80" as="geometry" />
        </mxCell>
        <mxCell id="_CsmnxEu2QW9fXy3xSoc-60" value="Quản Lý Lịch Làm Việc Nhân Viên" style="ellipse;whiteSpace=wrap;html=1;" vertex="1" parent="_CsmnxEu2QW9fXy3xSoc-58">
          <mxGeometry x="80" y="160" width="120" height="80" as="geometry" />
        </mxCell>
        <mxCell id="_CsmnxEu2QW9fXy3xSoc-61" value="Phê Duyệt Yêu Cầu Hủy Phòng, Hủy Dịch Vụ" style="ellipse;whiteSpace=wrap;html=1;" vertex="1" parent="_CsmnxEu2QW9fXy3xSoc-58">
          <mxGeometry x="80" y="280" width="120" height="80" as="geometry" />
        </mxCell>
        <mxCell id="_CsmnxEu2QW9fXy3xSoc-62" value="Xem Doanh Thu" style="ellipse;whiteSpace=wrap;html=1;" vertex="1" parent="_CsmnxEu2QW9fXy3xSoc-58">
          <mxGeometry x="80" y="400" width="120" height="80" as="geometry" />
        </mxCell>
        <mxCell id="_CsmnxEu2QW9fXy3xSoc-63" value="Xem Lịch Làm Việc Của Tất Cả Nhân Viên" style="ellipse;whiteSpace=wrap;html=1;" vertex="1" parent="_CsmnxEu2QW9fXy3xSoc-58">
          <mxGeometry x="320" y="80" width="120" height="80" as="geometry" />
        </mxCell>
        <mxCell id="_CsmnxEu2QW9fXy3xSoc-64" value="Sắp Xếp Lịch Làm Việc Của Nhân Viên" style="ellipse;whiteSpace=wrap;html=1;" vertex="1" parent="_CsmnxEu2QW9fXy3xSoc-58">
          <mxGeometry x="320" y="200" width="120" height="80" as="geometry" />
        </mxCell>
        <mxCell id="_CsmnxEu2QW9fXy3xSoc-65" value="&amp;lt;&amp;lt;extends&amp;gt;&amp;gt;" style="endArrow=none;html=1;rounded=0;exitX=1;exitY=0.5;exitDx=0;exitDy=0;entryX=0;entryY=0.5;entryDx=0;entryDy=0;dashed=1;startArrow=open;startFill=0;" edge="1" parent="_CsmnxEu2QW9fXy3xSoc-58" source="_CsmnxEu2QW9fXy3xSoc-60" target="_CsmnxEu2QW9fXy3xSoc-63">
          <mxGeometry width="50" height="50" relative="1" as="geometry">
            <mxPoint x="280" y="180" as="sourcePoint" />
            <mxPoint x="330" y="130" as="targetPoint" />
          </mxGeometry>
        </mxCell>
        <mxCell id="_CsmnxEu2QW9fXy3xSoc-66" value="&amp;lt;&amp;lt;extends&amp;gt;&amp;gt;" style="endArrow=none;html=1;rounded=0;exitX=1;exitY=0.5;exitDx=0;exitDy=0;entryX=0;entryY=0.5;entryDx=0;entryDy=0;dashed=1;startArrow=open;startFill=0;" edge="1" parent="_CsmnxEu2QW9fXy3xSoc-58" source="_CsmnxEu2QW9fXy3xSoc-60" target="_CsmnxEu2QW9fXy3xSoc-64">
          <mxGeometry width="50" height="50" relative="1" as="geometry">
            <mxPoint x="280" y="250" as="sourcePoint" />
            <mxPoint x="330" y="200" as="targetPoint" />
          </mxGeometry>
        </mxCell>
        <mxCell id="_CsmnxEu2QW9fXy3xSoc-67" value="Manager" style="shape=umlActor;verticalLabelPosition=bottom;verticalAlign=top;html=1;outlineConnect=0;" vertex="1" parent="1">
          <mxGeometry x="1720" y="-700" width="30" height="60" as="geometry" />
        </mxCell>
        <mxCell id="_CsmnxEu2QW9fXy3xSoc-68" value="" style="endArrow=none;html=1;rounded=0;exitX=1;exitY=0.3333333333333333;exitDx=0;exitDy=0;exitPerimeter=0;entryX=0;entryY=0.5;entryDx=0;entryDy=0;" edge="1" parent="1" source="_CsmnxEu2QW9fXy3xSoc-67" target="_CsmnxEu2QW9fXy3xSoc-59">
          <mxGeometry width="50" height="50" relative="1" as="geometry">
            <mxPoint x="1800" y="-760" as="sourcePoint" />
            <mxPoint x="1850" y="-810" as="targetPoint" />
          </mxGeometry>
        </mxCell>
        <mxCell id="_CsmnxEu2QW9fXy3xSoc-69" value="" style="endArrow=none;html=1;rounded=0;exitX=1;exitY=0.3333333333333333;exitDx=0;exitDy=0;exitPerimeter=0;entryX=0;entryY=0.5;entryDx=0;entryDy=0;" edge="1" parent="1" source="_CsmnxEu2QW9fXy3xSoc-67" target="_CsmnxEu2QW9fXy3xSoc-60">
          <mxGeometry width="50" height="50" relative="1" as="geometry">
            <mxPoint x="1770" y="-610" as="sourcePoint" />
            <mxPoint x="1820" y="-660" as="targetPoint" />
          </mxGeometry>
        </mxCell>
        <mxCell id="_CsmnxEu2QW9fXy3xSoc-70" value="" style="endArrow=none;html=1;rounded=0;exitX=1;exitY=0.3333333333333333;exitDx=0;exitDy=0;exitPerimeter=0;entryX=0;entryY=0.5;entryDx=0;entryDy=0;" edge="1" parent="1" source="_CsmnxEu2QW9fXy3xSoc-67" target="_CsmnxEu2QW9fXy3xSoc-61">
          <mxGeometry width="50" height="50" relative="1" as="geometry">
            <mxPoint x="1800" y="-560" as="sourcePoint" />
            <mxPoint x="1850" y="-610" as="targetPoint" />
          </mxGeometry>
        </mxCell>
        <mxCell id="_CsmnxEu2QW9fXy3xSoc-71" value="" style="endArrow=none;html=1;rounded=0;exitX=1;exitY=0.3333333333333333;exitDx=0;exitDy=0;exitPerimeter=0;entryX=0;entryY=0.5;entryDx=0;entryDy=0;" edge="1" parent="1" source="_CsmnxEu2QW9fXy3xSoc-67" target="_CsmnxEu2QW9fXy3xSoc-62">
          <mxGeometry width="50" height="50" relative="1" as="geometry">
            <mxPoint x="1760" y="-480" as="sourcePoint" />
            <mxPoint x="1810" y="-530" as="targetPoint" />
          </mxGeometry>
        </mxCell>
        <mxCell id="_CsmnxEu2QW9fXy3xSoc-72" value="" style="swimlane;startSize=0;" vertex="1" parent="1">
          <mxGeometry x="3560" y="-1010" width="830" height="760" as="geometry" />
        </mxCell>
        <mxCell id="_CsmnxEu2QW9fXy3xSoc-73" value="Xem Thông Tin&amp;nbsp;" style="ellipse;whiteSpace=wrap;html=1;" vertex="1" parent="_CsmnxEu2QW9fXy3xSoc-72">
          <mxGeometry x="240" y="160" width="120" height="80" as="geometry" />
        </mxCell>
        <mxCell id="_CsmnxEu2QW9fXy3xSoc-74" value="Tìm Kiếm" style="ellipse;whiteSpace=wrap;html=1;" vertex="1" parent="_CsmnxEu2QW9fXy3xSoc-72">
          <mxGeometry x="240" y="560" width="120" height="80" as="geometry" />
        </mxCell>
        <mxCell id="_CsmnxEu2QW9fXy3xSoc-75" value="Tìm Kiếm Phòng" style="ellipse;whiteSpace=wrap;html=1;" vertex="1" parent="_CsmnxEu2QW9fXy3xSoc-72">
          <mxGeometry x="440" y="520" width="120" height="80" as="geometry" />
        </mxCell>
        <mxCell id="_CsmnxEu2QW9fXy3xSoc-76" value="Tìm Kiếm Dịch Vụ" style="ellipse;whiteSpace=wrap;html=1;" vertex="1" parent="_CsmnxEu2QW9fXy3xSoc-72">
          <mxGeometry x="440" y="640" width="120" height="80" as="geometry" />
        </mxCell>
        <mxCell id="_CsmnxEu2QW9fXy3xSoc-77" value="" style="endArrow=none;html=1;rounded=0;exitX=1;exitY=0.5;exitDx=0;exitDy=0;entryX=0;entryY=0.5;entryDx=0;entryDy=0;" edge="1" parent="_CsmnxEu2QW9fXy3xSoc-72" source="_CsmnxEu2QW9fXy3xSoc-74" target="_CsmnxEu2QW9fXy3xSoc-75">
          <mxGeometry width="50" height="50" relative="1" as="geometry">
            <mxPoint x="220" y="530" as="sourcePoint" />
            <mxPoint x="270" y="480" as="targetPoint" />
          </mxGeometry>
        </mxCell>
        <mxCell id="_CsmnxEu2QW9fXy3xSoc-78" value="" style="endArrow=none;html=1;rounded=0;exitX=1;exitY=0.5;exitDx=0;exitDy=0;entryX=0;entryY=0.5;entryDx=0;entryDy=0;" edge="1" parent="_CsmnxEu2QW9fXy3xSoc-72" source="_CsmnxEu2QW9fXy3xSoc-74" target="_CsmnxEu2QW9fXy3xSoc-76">
          <mxGeometry width="50" height="50" relative="1" as="geometry">
            <mxPoint x="230" y="720" as="sourcePoint" />
            <mxPoint x="280" y="670" as="targetPoint" />
          </mxGeometry>
        </mxCell>
        <mxCell id="_CsmnxEu2QW9fXy3xSoc-79" value="Xem Thông Tin Phòng" style="ellipse;whiteSpace=wrap;html=1;" vertex="1" parent="_CsmnxEu2QW9fXy3xSoc-72">
          <mxGeometry x="440" y="40" width="120" height="80" as="geometry" />
        </mxCell>
        <mxCell id="_CsmnxEu2QW9fXy3xSoc-80" value="Xem Thông Tin Dịch Vụ" style="ellipse;whiteSpace=wrap;html=1;" vertex="1" parent="_CsmnxEu2QW9fXy3xSoc-72">
          <mxGeometry x="440" y="160" width="120" height="80" as="geometry" />
        </mxCell>
        <mxCell id="_CsmnxEu2QW9fXy3xSoc-81" value="Xem Thông Tin Liên Hệ Resort" style="ellipse;whiteSpace=wrap;html=1;" vertex="1" parent="_CsmnxEu2QW9fXy3xSoc-72">
          <mxGeometry x="440" y="280" width="120" height="80" as="geometry" />
        </mxCell>
        <mxCell id="_CsmnxEu2QW9fXy3xSoc-82" value="Xem Thông Tin Về Resort" style="ellipse;whiteSpace=wrap;html=1;" vertex="1" parent="_CsmnxEu2QW9fXy3xSoc-72">
          <mxGeometry x="440" y="400" width="120" height="80" as="geometry" />
        </mxCell>
        <mxCell id="_CsmnxEu2QW9fXy3xSoc-83" value="Xem, Tìm Kiếm Thông Tin" style="ellipse;whiteSpace=wrap;html=1;" vertex="1" parent="_CsmnxEu2QW9fXy3xSoc-72">
          <mxGeometry x="40" y="280" width="120" height="80" as="geometry" />
        </mxCell>
        <mxCell id="_CsmnxEu2QW9fXy3xSoc-84" value="" style="endArrow=none;html=1;rounded=0;exitX=1;exitY=0.5;exitDx=0;exitDy=0;entryX=0;entryY=0.5;entryDx=0;entryDy=0;" edge="1" parent="_CsmnxEu2QW9fXy3xSoc-72" source="_CsmnxEu2QW9fXy3xSoc-83" target="_CsmnxEu2QW9fXy3xSoc-73">
          <mxGeometry width="50" height="50" relative="1" as="geometry">
            <mxPoint x="-70" y="110" as="sourcePoint" />
            <mxPoint x="-20" y="60" as="targetPoint" />
          </mxGeometry>
        </mxCell>
        <mxCell id="_CsmnxEu2QW9fXy3xSoc-85" value="" style="endArrow=none;html=1;rounded=0;exitX=1;exitY=0.5;exitDx=0;exitDy=0;entryX=0;entryY=0.5;entryDx=0;entryDy=0;" edge="1" parent="_CsmnxEu2QW9fXy3xSoc-72" source="_CsmnxEu2QW9fXy3xSoc-83" target="_CsmnxEu2QW9fXy3xSoc-74">
          <mxGeometry width="50" height="50" relative="1" as="geometry">
            <mxPoint x="-50" y="200" as="sourcePoint" />
            <mxPoint y="150" as="targetPoint" />
          </mxGeometry>
        </mxCell>
        <mxCell id="_CsmnxEu2QW9fXy3xSoc-86" value="&amp;lt;&amp;lt;extends&amp;gt;&amp;gt;" style="endArrow=none;html=1;rounded=0;exitX=1;exitY=0.5;exitDx=0;exitDy=0;entryX=0;entryY=0.5;entryDx=0;entryDy=0;dashed=1;startArrow=open;startFill=0;" edge="1" parent="_CsmnxEu2QW9fXy3xSoc-72" source="_CsmnxEu2QW9fXy3xSoc-73" target="_CsmnxEu2QW9fXy3xSoc-79">
          <mxGeometry width="50" height="50" relative="1" as="geometry">
            <mxPoint x="350" y="90" as="sourcePoint" />
            <mxPoint x="400" y="40" as="targetPoint" />
          </mxGeometry>
        </mxCell>
        <mxCell id="_CsmnxEu2QW9fXy3xSoc-87" value="&amp;lt;&amp;lt;extends&amp;gt;&amp;gt;" style="endArrow=none;html=1;rounded=0;exitX=1;exitY=0.5;exitDx=0;exitDy=0;entryX=0;entryY=0.5;entryDx=0;entryDy=0;dashed=1;startArrow=open;startFill=0;" edge="1" parent="_CsmnxEu2QW9fXy3xSoc-72" source="_CsmnxEu2QW9fXy3xSoc-73" target="_CsmnxEu2QW9fXy3xSoc-80">
          <mxGeometry width="50" height="50" relative="1" as="geometry">
            <mxPoint x="390" y="290" as="sourcePoint" />
            <mxPoint x="440" y="240" as="targetPoint" />
          </mxGeometry>
        </mxCell>
        <mxCell id="_CsmnxEu2QW9fXy3xSoc-88" value="&amp;lt;&amp;lt;extends&amp;gt;&amp;gt;" style="endArrow=none;html=1;rounded=0;exitX=1;exitY=0.5;exitDx=0;exitDy=0;entryX=0;entryY=0.5;entryDx=0;entryDy=0;dashed=1;startArrow=open;startFill=0;" edge="1" parent="_CsmnxEu2QW9fXy3xSoc-72" source="_CsmnxEu2QW9fXy3xSoc-73" target="_CsmnxEu2QW9fXy3xSoc-81">
          <mxGeometry width="50" height="50" relative="1" as="geometry">
            <mxPoint x="380" y="320" as="sourcePoint" />
            <mxPoint x="440" y="280" as="targetPoint" />
          </mxGeometry>
        </mxCell>
        <mxCell id="_CsmnxEu2QW9fXy3xSoc-89" value="&amp;lt;&amp;lt;" style="endArrow=none;html=1;rounded=0;exitX=1;exitY=0.5;exitDx=0;exitDy=0;entryX=0;entryY=0.5;entryDx=0;entryDy=0;dashed=1;startArrow=open;startFill=0;" edge="1" parent="_CsmnxEu2QW9fXy3xSoc-72" source="_CsmnxEu2QW9fXy3xSoc-73" target="_CsmnxEu2QW9fXy3xSoc-82">
          <mxGeometry width="50" height="50" relative="1" as="geometry">
            <mxPoint x="350" y="360" as="sourcePoint" />
            <mxPoint x="400" y="310" as="targetPoint" />
          </mxGeometry>
        </mxCell>
        <mxCell id="_CsmnxEu2QW9fXy3xSoc-90" value="Xem Thông Tin Chi Tiết Phòng" style="ellipse;whiteSpace=wrap;html=1;" vertex="1" parent="_CsmnxEu2QW9fXy3xSoc-72">
          <mxGeometry x="680" y="40" width="120" height="80" as="geometry" />
        </mxCell>
        <mxCell id="_CsmnxEu2QW9fXy3xSoc-91" value="" style="endArrow=none;html=1;rounded=0;exitX=1;exitY=0.5;exitDx=0;exitDy=0;entryX=0;entryY=0.5;entryDx=0;entryDy=0;" edge="1" parent="_CsmnxEu2QW9fXy3xSoc-72" source="_CsmnxEu2QW9fXy3xSoc-79" target="_CsmnxEu2QW9fXy3xSoc-90">
          <mxGeometry width="50" height="50" relative="1" as="geometry">
            <mxPoint x="630" y="150" as="sourcePoint" />
            <mxPoint x="680" y="100" as="targetPoint" />
          </mxGeometry>
        </mxCell>
        <mxCell id="_CsmnxEu2QW9fXy3xSoc-92" value="" style="endArrow=none;html=1;rounded=0;exitX=1;exitY=0.5;exitDx=0;exitDy=0;entryX=0;entryY=0.5;entryDx=0;entryDy=0;" edge="1" parent="_CsmnxEu2QW9fXy3xSoc-72" source="_CsmnxEu2QW9fXy3xSoc-80" target="_CsmnxEu2QW9fXy3xSoc-93">
          <mxGeometry width="50" height="50" relative="1" as="geometry">
            <mxPoint x="620" y="270" as="sourcePoint" />
            <mxPoint x="670" y="220" as="targetPoint" />
          </mxGeometry>
        </mxCell>
        <mxCell id="_CsmnxEu2QW9fXy3xSoc-93" value="Xem Thông Tin Chi Tiết Dịch Vụ" style="ellipse;whiteSpace=wrap;html=1;" vertex="1" parent="_CsmnxEu2QW9fXy3xSoc-72">
          <mxGeometry x="680" y="160" width="120" height="80" as="geometry" />
        </mxCell>
        <mxCell id="_CsmnxEu2QW9fXy3xSoc-94" value="Guest" style="shape=umlActor;verticalLabelPosition=bottom;verticalAlign=top;html=1;outlineConnect=0;" vertex="1" parent="1">
          <mxGeometry x="3440" y="-710" width="30" height="60" as="geometry" />
        </mxCell>
        <mxCell id="_CsmnxEu2QW9fXy3xSoc-95" value="" style="swimlane;startSize=0;fillColor=#0050ef;fontColor=#ffffff;strokeColor=#001DBC;swimlaneFillColor=#6f2cf4;" vertex="1" parent="1">
          <mxGeometry x="2800" y="-1180" width="160" height="2360" as="geometry" />
        </mxCell>
        <mxCell id="_CsmnxEu2QW9fXy3xSoc-96" value="" style="swimlane;startSize=0;" vertex="1" parent="1">
          <mxGeometry x="3600" y="160" width="280" height="200" as="geometry" />
        </mxCell>
        <mxCell id="_CsmnxEu2QW9fXy3xSoc-97" value="Đăng Ký Tài Khoản" style="ellipse;whiteSpace=wrap;html=1;" vertex="1" parent="_CsmnxEu2QW9fXy3xSoc-96">
          <mxGeometry x="80" y="70" width="120" height="80" as="geometry" />
        </mxCell>
        <mxCell id="_CsmnxEu2QW9fXy3xSoc-98" value="Guest" style="shape=umlActor;verticalLabelPosition=bottom;verticalAlign=top;html=1;outlineConnect=0;" vertex="1" parent="1">
          <mxGeometry x="3440" y="250" width="30" height="60" as="geometry" />
        </mxCell>
        <mxCell id="_CsmnxEu2QW9fXy3xSoc-99" value="" style="endArrow=none;html=1;rounded=0;exitX=1;exitY=0.3333333333333333;exitDx=0;exitDy=0;exitPerimeter=0;entryX=0;entryY=0.5;entryDx=0;entryDy=0;" edge="1" parent="1" source="_CsmnxEu2QW9fXy3xSoc-98" target="_CsmnxEu2QW9fXy3xSoc-97">
          <mxGeometry width="50" height="50" relative="1" as="geometry">
            <mxPoint x="3510" y="230" as="sourcePoint" />
            <mxPoint x="3560" y="180" as="targetPoint" />
          </mxGeometry>
        </mxCell>
        <mxCell id="_CsmnxEu2QW9fXy3xSoc-100" value="&lt;font style=&quot;font-size: 22px;&quot;&gt;5.2.1.1. Xem Và Tìm Kiếm Thông Tin Resort&lt;/font&gt;" style="text;html=1;strokeColor=none;fillColor=none;align=center;verticalAlign=middle;whiteSpace=wrap;rounded=0;" vertex="1" parent="1">
          <mxGeometry x="3400" y="-1110" width="450" height="30" as="geometry" />
        </mxCell>
        <mxCell id="_CsmnxEu2QW9fXy3xSoc-101" value="&lt;font style=&quot;font-size: 22px;&quot;&gt;5.2.1.2. Đăng Ký Tài Khoản&lt;/font&gt;" style="text;html=1;strokeColor=none;fillColor=none;align=center;verticalAlign=middle;whiteSpace=wrap;rounded=0;" vertex="1" parent="1">
          <mxGeometry x="3340" y="50" width="400" height="30" as="geometry" />
        </mxCell>
        <mxCell id="_CsmnxEu2QW9fXy3xSoc-102" value="" style="swimlane;startSize=0;" vertex="1" parent="1">
          <mxGeometry x="5241" y="-1020" width="440" height="320" as="geometry" />
        </mxCell>
        <mxCell id="_CsmnxEu2QW9fXy3xSoc-103" value="Sửa Thông Tin Cá Nhân" style="ellipse;whiteSpace=wrap;html=1;" vertex="1" parent="_CsmnxEu2QW9fXy3xSoc-102">
          <mxGeometry x="280" y="40" width="120" height="80" as="geometry" />
        </mxCell>
        <mxCell id="_CsmnxEu2QW9fXy3xSoc-104" value="Đổi Mật Khẩu" style="ellipse;whiteSpace=wrap;html=1;" vertex="1" parent="_CsmnxEu2QW9fXy3xSoc-102">
          <mxGeometry x="280" y="160" width="120" height="80" as="geometry" />
        </mxCell>
        <mxCell id="_CsmnxEu2QW9fXy3xSoc-105" value="Quản Lý Thông Tin Tài Khoản" style="ellipse;whiteSpace=wrap;html=1;" vertex="1" parent="_CsmnxEu2QW9fXy3xSoc-102">
          <mxGeometry x="40" y="120" width="120" height="80" as="geometry" />
        </mxCell>
        <mxCell id="_CsmnxEu2QW9fXy3xSoc-106" value="extends" style="endArrow=none;html=1;rounded=0;exitX=1;exitY=0.5;exitDx=0;exitDy=0;entryX=0;entryY=0.5;entryDx=0;entryDy=0;dashed=1;startArrow=open;startFill=0;" edge="1" parent="_CsmnxEu2QW9fXy3xSoc-102" source="_CsmnxEu2QW9fXy3xSoc-105" target="_CsmnxEu2QW9fXy3xSoc-103">
          <mxGeometry width="50" height="50" relative="1" as="geometry">
            <mxPoint x="200" y="130" as="sourcePoint" />
            <mxPoint x="250" y="80" as="targetPoint" />
          </mxGeometry>
        </mxCell>
        <mxCell id="_CsmnxEu2QW9fXy3xSoc-107" value="extends" style="endArrow=none;html=1;rounded=0;exitX=1;exitY=0.5;exitDx=0;exitDy=0;entryX=0;entryY=0.5;entryDx=0;entryDy=0;dashed=1;startArrow=open;startFill=0;" edge="1" parent="_CsmnxEu2QW9fXy3xSoc-102" source="_CsmnxEu2QW9fXy3xSoc-105" target="_CsmnxEu2QW9fXy3xSoc-104">
          <mxGeometry width="50" height="50" relative="1" as="geometry">
            <mxPoint x="210" y="250" as="sourcePoint" />
            <mxPoint x="260" y="200" as="targetPoint" />
          </mxGeometry>
        </mxCell>
        <mxCell id="_CsmnxEu2QW9fXy3xSoc-108" value="&lt;font style=&quot;font-size: 22px;&quot;&gt;5.2.2.1. Quản Lý Thông Tin Tài Khoản&amp;nbsp;&lt;/font&gt;" style="text;html=1;strokeColor=none;fillColor=none;align=center;verticalAlign=middle;whiteSpace=wrap;rounded=0;" vertex="1" parent="1">
          <mxGeometry x="5120" y="-1130" width="540" height="30" as="geometry" />
        </mxCell>
        <mxCell id="_CsmnxEu2QW9fXy3xSoc-109" value="Customer" style="shape=umlActor;verticalLabelPosition=bottom;verticalAlign=top;html=1;outlineConnect=0;" vertex="1" parent="1">
          <mxGeometry x="5071" y="-880" width="30" height="60" as="geometry" />
        </mxCell>
        <mxCell id="_CsmnxEu2QW9fXy3xSoc-110" value="" style="endArrow=none;html=1;rounded=0;exitX=1;exitY=0.3333333333333333;exitDx=0;exitDy=0;exitPerimeter=0;entryX=0;entryY=0.5;entryDx=0;entryDy=0;" edge="1" parent="1" source="_CsmnxEu2QW9fXy3xSoc-109" target="_CsmnxEu2QW9fXy3xSoc-105">
          <mxGeometry width="50" height="50" relative="1" as="geometry">
            <mxPoint x="5201" y="-860" as="sourcePoint" />
            <mxPoint x="5251" y="-910" as="targetPoint" />
          </mxGeometry>
        </mxCell>
        <mxCell id="_CsmnxEu2QW9fXy3xSoc-111" value="&lt;span style=&quot;font-size: 22px;&quot;&gt;5.2.2.2. Quản Lý Đăng Ký&lt;/span&gt;" style="text;html=1;strokeColor=none;fillColor=none;align=center;verticalAlign=middle;whiteSpace=wrap;rounded=0;" vertex="1" parent="1">
          <mxGeometry x="5160" y="80" width="260" height="30" as="geometry" />
        </mxCell>
        <mxCell id="_CsmnxEu2QW9fXy3xSoc-112" value="" style="swimlane;startSize=0;" vertex="1" parent="1">
          <mxGeometry x="5133" y="160" width="840" height="620" as="geometry" />
        </mxCell>
        <mxCell id="_CsmnxEu2QW9fXy3xSoc-113" value="Quản Lý Đăng Ký" style="ellipse;whiteSpace=wrap;html=1;" vertex="1" parent="_CsmnxEu2QW9fXy3xSoc-112">
          <mxGeometry x="40" y="240" width="120" height="80" as="geometry" />
        </mxCell>
        <mxCell id="_CsmnxEu2QW9fXy3xSoc-114" value="Đăng Ký Room" style="ellipse;whiteSpace=wrap;html=1;" vertex="1" parent="_CsmnxEu2QW9fXy3xSoc-112">
          <mxGeometry x="240" y="40" width="120" height="80" as="geometry" />
        </mxCell>
        <mxCell id="_CsmnxEu2QW9fXy3xSoc-115" value="Đăng Ký Dịch Vụ" style="ellipse;whiteSpace=wrap;html=1;" vertex="1" parent="_CsmnxEu2QW9fXy3xSoc-112">
          <mxGeometry x="240" y="160" width="120" height="80" as="geometry" />
        </mxCell>
        <mxCell id="_CsmnxEu2QW9fXy3xSoc-116" value="Xem Thông Tin Đăng Ký" style="ellipse;whiteSpace=wrap;html=1;" vertex="1" parent="_CsmnxEu2QW9fXy3xSoc-112">
          <mxGeometry x="240" y="280" width="120" height="80" as="geometry" />
        </mxCell>
        <mxCell id="_CsmnxEu2QW9fXy3xSoc-117" value="" style="endArrow=none;html=1;rounded=0;exitX=0.5;exitY=0;exitDx=0;exitDy=0;entryX=0;entryY=0.5;entryDx=0;entryDy=0;startArrow=block;startFill=0;" edge="1" parent="_CsmnxEu2QW9fXy3xSoc-112" source="_CsmnxEu2QW9fXy3xSoc-113" target="_CsmnxEu2QW9fXy3xSoc-114">
          <mxGeometry width="50" height="50" relative="1" as="geometry">
            <mxPoint x="210" y="160" as="sourcePoint" />
            <mxPoint x="260" y="110" as="targetPoint" />
          </mxGeometry>
        </mxCell>
        <mxCell id="_CsmnxEu2QW9fXy3xSoc-118" value="" style="endArrow=none;html=1;rounded=0;entryX=0;entryY=0.5;entryDx=0;entryDy=0;startArrow=block;startFill=0;exitX=1;exitY=0;exitDx=0;exitDy=0;" edge="1" parent="_CsmnxEu2QW9fXy3xSoc-112" source="_CsmnxEu2QW9fXy3xSoc-113" target="_CsmnxEu2QW9fXy3xSoc-115">
          <mxGeometry width="50" height="50" relative="1" as="geometry">
            <mxPoint x="160" y="280" as="sourcePoint" />
            <mxPoint x="250" y="220" as="targetPoint" />
          </mxGeometry>
        </mxCell>
        <mxCell id="_CsmnxEu2QW9fXy3xSoc-119" value="" style="endArrow=none;html=1;rounded=0;exitX=1;exitY=0.5;exitDx=0;exitDy=0;entryX=0;entryY=0.5;entryDx=0;entryDy=0;startArrow=block;startFill=0;" edge="1" parent="_CsmnxEu2QW9fXy3xSoc-112" source="_CsmnxEu2QW9fXy3xSoc-113" target="_CsmnxEu2QW9fXy3xSoc-116">
          <mxGeometry width="50" height="50" relative="1" as="geometry">
            <mxPoint x="230" y="360" as="sourcePoint" />
            <mxPoint x="280" y="310" as="targetPoint" />
          </mxGeometry>
        </mxCell>
        <mxCell id="_CsmnxEu2QW9fXy3xSoc-120" value="Yêu Cầu Hủy" style="ellipse;whiteSpace=wrap;html=1;" vertex="1" parent="_CsmnxEu2QW9fXy3xSoc-112">
          <mxGeometry x="240" y="400" width="120" height="80" as="geometry" />
        </mxCell>
        <mxCell id="_CsmnxEu2QW9fXy3xSoc-121" value="" style="endArrow=none;html=1;rounded=0;exitX=1;exitY=1;exitDx=0;exitDy=0;entryX=0;entryY=0.5;entryDx=0;entryDy=0;startArrow=block;startFill=0;" edge="1" parent="_CsmnxEu2QW9fXy3xSoc-112" source="_CsmnxEu2QW9fXy3xSoc-113" target="_CsmnxEu2QW9fXy3xSoc-120">
          <mxGeometry width="50" height="50" relative="1" as="geometry">
            <mxPoint x="140" y="400" as="sourcePoint" />
            <mxPoint x="190" y="350" as="targetPoint" />
          </mxGeometry>
        </mxCell>
        <mxCell id="_CsmnxEu2QW9fXy3xSoc-122" value="Yêu Cầu Hủy Phòng" style="ellipse;whiteSpace=wrap;html=1;" vertex="1" parent="_CsmnxEu2QW9fXy3xSoc-112">
          <mxGeometry x="480" y="360" width="120" height="80" as="geometry" />
        </mxCell>
        <mxCell id="_CsmnxEu2QW9fXy3xSoc-123" value="Yêu Cầu Hủy Dịch Vụ" style="ellipse;whiteSpace=wrap;html=1;" vertex="1" parent="_CsmnxEu2QW9fXy3xSoc-112">
          <mxGeometry x="480" y="480" width="120" height="80" as="geometry" />
        </mxCell>
        <mxCell id="_CsmnxEu2QW9fXy3xSoc-124" value="extends" style="endArrow=none;html=1;rounded=0;exitX=1;exitY=0.5;exitDx=0;exitDy=0;entryX=0;entryY=0.5;entryDx=0;entryDy=0;dashed=1;startArrow=open;startFill=0;" edge="1" parent="_CsmnxEu2QW9fXy3xSoc-112" source="_CsmnxEu2QW9fXy3xSoc-120" target="_CsmnxEu2QW9fXy3xSoc-122">
          <mxGeometry width="50" height="50" relative="1" as="geometry">
            <mxPoint x="370" y="420" as="sourcePoint" />
            <mxPoint x="420" y="370" as="targetPoint" />
          </mxGeometry>
        </mxCell>
        <mxCell id="_CsmnxEu2QW9fXy3xSoc-125" value="extends" style="endArrow=none;html=1;rounded=0;exitX=1;exitY=0.5;exitDx=0;exitDy=0;entryX=0;entryY=0.5;entryDx=0;entryDy=0;startArrow=open;startFill=0;dashed=1;" edge="1" parent="_CsmnxEu2QW9fXy3xSoc-112" source="_CsmnxEu2QW9fXy3xSoc-120" target="_CsmnxEu2QW9fXy3xSoc-123">
          <mxGeometry width="50" height="50" relative="1" as="geometry">
            <mxPoint x="380" y="510" as="sourcePoint" />
            <mxPoint x="430" y="460" as="targetPoint" />
          </mxGeometry>
        </mxCell>
        <mxCell id="_CsmnxEu2QW9fXy3xSoc-134" value="Customer" style="shape=umlActor;verticalLabelPosition=bottom;verticalAlign=top;html=1;outlineConnect=0;" vertex="1" parent="1">
          <mxGeometry x="5000" y="430" width="30" height="60" as="geometry" />
        </mxCell>
        <mxCell id="_CsmnxEu2QW9fXy3xSoc-135" value="" style="endArrow=none;html=1;rounded=0;exitX=1;exitY=0.3333333333333333;exitDx=0;exitDy=0;exitPerimeter=0;entryX=0;entryY=0.5;entryDx=0;entryDy=0;" edge="1" parent="1" source="_CsmnxEu2QW9fXy3xSoc-94" target="_CsmnxEu2QW9fXy3xSoc-83">
          <mxGeometry width="50" height="50" relative="1" as="geometry">
            <mxPoint x="3570" y="-700" as="sourcePoint" />
            <mxPoint x="3620" y="-750" as="targetPoint" />
          </mxGeometry>
        </mxCell>
        <mxCell id="_CsmnxEu2QW9fXy3xSoc-136" value="" style="endArrow=none;html=1;rounded=0;exitX=1;exitY=0.3333333333333333;exitDx=0;exitDy=0;exitPerimeter=0;entryX=0;entryY=0.5;entryDx=0;entryDy=0;" edge="1" parent="1" source="_CsmnxEu2QW9fXy3xSoc-134" target="_CsmnxEu2QW9fXy3xSoc-113">
          <mxGeometry width="50" height="50" relative="1" as="geometry">
            <mxPoint x="5120" y="480" as="sourcePoint" />
            <mxPoint x="5170" y="430" as="targetPoint" />
          </mxGeometry>
        </mxCell>
        <mxCell id="_CsmnxEu2QW9fXy3xSoc-137" value="" style="swimlane;startSize=0;" vertex="1" parent="1">
          <mxGeometry x="6840" y="-1050" width="1000" height="1050" as="geometry" />
        </mxCell>
        <mxCell id="_CsmnxEu2QW9fXy3xSoc-138" value="Quản Lý Thông Tin Room, Dịch Vụ" style="ellipse;whiteSpace=wrap;html=1;" vertex="1" parent="_CsmnxEu2QW9fXy3xSoc-137">
          <mxGeometry x="80" y="390" width="120" height="80" as="geometry" />
        </mxCell>
        <mxCell id="_CsmnxEu2QW9fXy3xSoc-139" value="Quản Lý Thông Tin Phòng" style="ellipse;whiteSpace=wrap;html=1;" vertex="1" parent="_CsmnxEu2QW9fXy3xSoc-137">
          <mxGeometry x="240" y="210" width="120" height="80" as="geometry" />
        </mxCell>
        <mxCell id="_CsmnxEu2QW9fXy3xSoc-140" value="Thêm Phòng" style="ellipse;whiteSpace=wrap;html=1;" vertex="1" parent="_CsmnxEu2QW9fXy3xSoc-137">
          <mxGeometry x="520" y="50" width="120" height="80" as="geometry" />
        </mxCell>
        <mxCell id="_CsmnxEu2QW9fXy3xSoc-141" value="Cập Nhật Thông Tin Phòng" style="ellipse;whiteSpace=wrap;html=1;" vertex="1" parent="_CsmnxEu2QW9fXy3xSoc-137">
          <mxGeometry x="520" y="210" width="120" height="80" as="geometry" />
        </mxCell>
        <mxCell id="_CsmnxEu2QW9fXy3xSoc-142" value="Xóa Phòng" style="ellipse;whiteSpace=wrap;html=1;" vertex="1" parent="_CsmnxEu2QW9fXy3xSoc-137">
          <mxGeometry x="520" y="410" width="120" height="80" as="geometry" />
        </mxCell>
        <mxCell id="_CsmnxEu2QW9fXy3xSoc-143" value="Xem Thông Tin Phòng" style="ellipse;whiteSpace=wrap;html=1;" vertex="1" parent="_CsmnxEu2QW9fXy3xSoc-137">
          <mxGeometry x="760" y="330" width="120" height="80" as="geometry" />
        </mxCell>
        <mxCell id="_CsmnxEu2QW9fXy3xSoc-144" value="&amp;lt;&amp;lt;extends&amp;gt;&amp;gt;" style="endArrow=none;html=1;rounded=0;entryX=0;entryY=0.5;entryDx=0;entryDy=0;startArrow=open;startFill=0;dashed=1;" edge="1" parent="_CsmnxEu2QW9fXy3xSoc-137" source="_CsmnxEu2QW9fXy3xSoc-139" target="_CsmnxEu2QW9fXy3xSoc-140">
          <mxGeometry width="50" height="50" relative="1" as="geometry">
            <mxPoint x="380" y="130" as="sourcePoint" />
            <mxPoint x="430" y="80" as="targetPoint" />
          </mxGeometry>
        </mxCell>
        <mxCell id="_CsmnxEu2QW9fXy3xSoc-145" value="&amp;lt;&amp;lt;extends&amp;gt;&amp;gt;" style="endArrow=none;html=1;rounded=0;exitX=1;exitY=0.5;exitDx=0;exitDy=0;entryX=0;entryY=0.5;entryDx=0;entryDy=0;startArrow=open;startFill=0;dashed=1;" edge="1" parent="_CsmnxEu2QW9fXy3xSoc-137" source="_CsmnxEu2QW9fXy3xSoc-139" target="_CsmnxEu2QW9fXy3xSoc-141">
          <mxGeometry width="50" height="50" relative="1" as="geometry">
            <mxPoint x="390" y="180" as="sourcePoint" />
            <mxPoint x="440" y="130" as="targetPoint" />
          </mxGeometry>
        </mxCell>
        <mxCell id="_CsmnxEu2QW9fXy3xSoc-146" value="&amp;lt;&amp;lt;extends&amp;gt;&amp;gt;" style="endArrow=none;html=1;rounded=0;exitX=0.5;exitY=1;exitDx=0;exitDy=0;entryX=0;entryY=0.5;entryDx=0;entryDy=0;dashed=1;startArrow=open;startFill=0;" edge="1" parent="_CsmnxEu2QW9fXy3xSoc-137" source="_CsmnxEu2QW9fXy3xSoc-139" target="_CsmnxEu2QW9fXy3xSoc-142">
          <mxGeometry width="50" height="50" relative="1" as="geometry">
            <mxPoint x="380" y="260" as="sourcePoint" />
            <mxPoint x="430" y="210" as="targetPoint" />
          </mxGeometry>
        </mxCell>
        <mxCell id="_CsmnxEu2QW9fXy3xSoc-147" value="&amp;lt;&amp;lt;extends&amp;gt;&amp;gt;" style="endArrow=none;html=1;rounded=0;exitX=1;exitY=1;exitDx=0;exitDy=0;entryX=0;entryY=0.5;entryDx=0;entryDy=0;dashed=1;startArrow=open;startFill=0;" edge="1" parent="_CsmnxEu2QW9fXy3xSoc-137" source="_CsmnxEu2QW9fXy3xSoc-139" target="_CsmnxEu2QW9fXy3xSoc-143">
          <mxGeometry width="50" height="50" relative="1" as="geometry">
            <mxPoint x="470" y="280" as="sourcePoint" />
            <mxPoint x="520" y="230" as="targetPoint" />
          </mxGeometry>
        </mxCell>
        <mxCell id="_CsmnxEu2QW9fXy3xSoc-148" value="&amp;lt;&amp;lt;include&amp;gt;&amp;gt;" style="endArrow=open;html=1;rounded=0;exitX=1;exitY=0.5;exitDx=0;exitDy=0;entryX=0;entryY=0;entryDx=0;entryDy=0;dashed=1;endFill=0;" edge="1" parent="_CsmnxEu2QW9fXy3xSoc-137" source="_CsmnxEu2QW9fXy3xSoc-141" target="_CsmnxEu2QW9fXy3xSoc-143">
          <mxGeometry width="50" height="50" relative="1" as="geometry">
            <mxPoint x="650" y="120" as="sourcePoint" />
            <mxPoint x="700" y="70" as="targetPoint" />
          </mxGeometry>
        </mxCell>
        <mxCell id="_CsmnxEu2QW9fXy3xSoc-149" value="&amp;lt;&amp;lt;include&amp;gt;&amp;gt;" style="endArrow=open;html=1;rounded=0;exitX=1;exitY=0.5;exitDx=0;exitDy=0;entryX=0;entryY=1;entryDx=0;entryDy=0;dashed=1;endFill=0;" edge="1" parent="_CsmnxEu2QW9fXy3xSoc-137" source="_CsmnxEu2QW9fXy3xSoc-142" target="_CsmnxEu2QW9fXy3xSoc-143">
          <mxGeometry width="50" height="50" relative="1" as="geometry">
            <mxPoint x="610" y="370" as="sourcePoint" />
            <mxPoint x="660" y="320" as="targetPoint" />
          </mxGeometry>
        </mxCell>
        <mxCell id="_CsmnxEu2QW9fXy3xSoc-150" value="" style="endArrow=none;html=1;rounded=0;exitX=1;exitY=0;exitDx=0;exitDy=0;entryX=0;entryY=1;entryDx=0;entryDy=0;startArrow=block;startFill=0;" edge="1" parent="_CsmnxEu2QW9fXy3xSoc-137" source="_CsmnxEu2QW9fXy3xSoc-138" target="_CsmnxEu2QW9fXy3xSoc-139">
          <mxGeometry width="50" height="50" relative="1" as="geometry">
            <mxPoint x="220" y="340" as="sourcePoint" />
            <mxPoint x="270" y="290" as="targetPoint" />
          </mxGeometry>
        </mxCell>
        <mxCell id="_CsmnxEu2QW9fXy3xSoc-151" value="" style="endArrow=none;html=1;rounded=0;exitX=1;exitY=1;exitDx=0;exitDy=0;entryX=0;entryY=0.5;entryDx=0;entryDy=0;startArrow=block;startFill=0;" edge="1" parent="_CsmnxEu2QW9fXy3xSoc-137" source="_CsmnxEu2QW9fXy3xSoc-138" target="_CsmnxEu2QW9fXy3xSoc-152">
          <mxGeometry width="50" height="50" relative="1" as="geometry">
            <mxPoint x="230" y="560" as="sourcePoint" />
            <mxPoint x="257.57359312868266" y="621.715728752456" as="targetPoint" />
          </mxGeometry>
        </mxCell>
        <mxCell id="_CsmnxEu2QW9fXy3xSoc-152" value="Quản Lý Thông Tin Dịch Vụ" style="ellipse;whiteSpace=wrap;html=1;" vertex="1" parent="_CsmnxEu2QW9fXy3xSoc-137">
          <mxGeometry x="240" y="610" width="120" height="80" as="geometry" />
        </mxCell>
        <mxCell id="_CsmnxEu2QW9fXy3xSoc-153" value="Thêm Dịch Vụ" style="ellipse;whiteSpace=wrap;html=1;" vertex="1" parent="_CsmnxEu2QW9fXy3xSoc-137">
          <mxGeometry x="520" y="530" width="120" height="80" as="geometry" />
        </mxCell>
        <mxCell id="_CsmnxEu2QW9fXy3xSoc-154" value="Cập Nhật Thông Tin Dịch Vụ" style="ellipse;whiteSpace=wrap;html=1;" vertex="1" parent="_CsmnxEu2QW9fXy3xSoc-137">
          <mxGeometry x="520" y="650" width="120" height="80" as="geometry" />
        </mxCell>
        <mxCell id="_CsmnxEu2QW9fXy3xSoc-155" value="Xem Thông Tin Dịch Vụ" style="ellipse;whiteSpace=wrap;html=1;" vertex="1" parent="_CsmnxEu2QW9fXy3xSoc-137">
          <mxGeometry x="760" y="810" width="120" height="80" as="geometry" />
        </mxCell>
        <mxCell id="_CsmnxEu2QW9fXy3xSoc-156" value="&amp;lt;&amp;lt;extends&amp;gt;&amp;gt;" style="endArrow=none;html=1;rounded=0;entryX=0;entryY=0.5;entryDx=0;entryDy=0;startArrow=open;startFill=0;dashed=1;" edge="1" parent="_CsmnxEu2QW9fXy3xSoc-137" source="_CsmnxEu2QW9fXy3xSoc-152" target="_CsmnxEu2QW9fXy3xSoc-153">
          <mxGeometry width="50" height="50" relative="1" as="geometry">
            <mxPoint x="410" y="580" as="sourcePoint" />
            <mxPoint x="460" y="530" as="targetPoint" />
          </mxGeometry>
        </mxCell>
        <mxCell id="_CsmnxEu2QW9fXy3xSoc-157" value="&amp;lt;&amp;lt;extends&amp;gt;&amp;gt;" style="endArrow=none;html=1;rounded=0;exitX=1;exitY=0.5;exitDx=0;exitDy=0;entryX=0;entryY=0.5;entryDx=0;entryDy=0;startArrow=open;startFill=0;dashed=1;" edge="1" parent="_CsmnxEu2QW9fXy3xSoc-137" source="_CsmnxEu2QW9fXy3xSoc-152" target="_CsmnxEu2QW9fXy3xSoc-154">
          <mxGeometry width="50" height="50" relative="1" as="geometry">
            <mxPoint x="420" y="630" as="sourcePoint" />
            <mxPoint x="470" y="580" as="targetPoint" />
          </mxGeometry>
        </mxCell>
        <mxCell id="_CsmnxEu2QW9fXy3xSoc-158" value="&amp;lt;&amp;lt;extends&amp;gt;&amp;gt;" style="endArrow=none;html=1;rounded=0;exitX=0.5;exitY=1;exitDx=0;exitDy=0;entryX=0;entryY=0.5;entryDx=0;entryDy=0;dashed=1;startArrow=open;startFill=0;" edge="1" parent="_CsmnxEu2QW9fXy3xSoc-137" source="_CsmnxEu2QW9fXy3xSoc-152" target="_CsmnxEu2QW9fXy3xSoc-162">
          <mxGeometry width="50" height="50" relative="1" as="geometry">
            <mxPoint x="410" y="710" as="sourcePoint" />
            <mxPoint x="550" y="900" as="targetPoint" />
          </mxGeometry>
        </mxCell>
        <mxCell id="_CsmnxEu2QW9fXy3xSoc-159" value="&amp;lt;&amp;lt;extends&amp;gt;&amp;gt;" style="endArrow=none;html=1;rounded=0;exitX=1;exitY=1;exitDx=0;exitDy=0;entryX=0;entryY=0.5;entryDx=0;entryDy=0;dashed=1;startArrow=open;startFill=0;" edge="1" parent="_CsmnxEu2QW9fXy3xSoc-137" source="_CsmnxEu2QW9fXy3xSoc-152" target="_CsmnxEu2QW9fXy3xSoc-155">
          <mxGeometry width="50" height="50" relative="1" as="geometry">
            <mxPoint x="500" y="730" as="sourcePoint" />
            <mxPoint x="750" y="820" as="targetPoint" />
          </mxGeometry>
        </mxCell>
        <mxCell id="_CsmnxEu2QW9fXy3xSoc-160" value="&amp;lt;&amp;lt;include&amp;gt;&amp;gt;" style="endArrow=open;html=1;rounded=0;exitX=1;exitY=0.5;exitDx=0;exitDy=0;entryX=0;entryY=0;entryDx=0;entryDy=0;dashed=1;endFill=0;" edge="1" parent="_CsmnxEu2QW9fXy3xSoc-137" source="_CsmnxEu2QW9fXy3xSoc-154" target="_CsmnxEu2QW9fXy3xSoc-155">
          <mxGeometry width="50" height="50" relative="1" as="geometry">
            <mxPoint x="680" y="570" as="sourcePoint" />
            <mxPoint x="767.5735931288073" y="791.7157287525383" as="targetPoint" />
          </mxGeometry>
        </mxCell>
        <mxCell id="_CsmnxEu2QW9fXy3xSoc-161" value="&amp;lt;&amp;lt;include&amp;gt;&amp;gt;" style="endArrow=open;html=1;rounded=0;exitX=1;exitY=0.5;exitDx=0;exitDy=0;entryX=0;entryY=1;entryDx=0;entryDy=0;dashed=1;endFill=0;" edge="1" parent="_CsmnxEu2QW9fXy3xSoc-137" source="_CsmnxEu2QW9fXy3xSoc-162" target="_CsmnxEu2QW9fXy3xSoc-155">
          <mxGeometry width="50" height="50" relative="1" as="geometry">
            <mxPoint x="670" y="900" as="sourcePoint" />
            <mxPoint x="767.5735931288073" y="848.2842712474626" as="targetPoint" />
          </mxGeometry>
        </mxCell>
        <mxCell id="_CsmnxEu2QW9fXy3xSoc-162" value="Xóa Dịch Vụ" style="ellipse;whiteSpace=wrap;html=1;" vertex="1" parent="_CsmnxEu2QW9fXy3xSoc-137">
          <mxGeometry x="520" y="890" width="120" height="80" as="geometry" />
        </mxCell>
        <mxCell id="_CsmnxEu2QW9fXy3xSoc-163" value="Admin" style="shape=umlActor;verticalLabelPosition=bottom;verticalAlign=top;html=1;outlineConnect=0;" vertex="1" parent="1">
          <mxGeometry x="6690" y="-640" width="30" height="60" as="geometry" />
        </mxCell>
        <mxCell id="_CsmnxEu2QW9fXy3xSoc-164" value="&lt;font style=&quot;font-size: 22px;&quot;&gt;5.2.3.1. Quản Lý Thông Tin Room, Dịch Vụ&lt;/font&gt;" style="text;html=1;strokeColor=none;fillColor=none;align=center;verticalAlign=middle;whiteSpace=wrap;rounded=0;" vertex="1" parent="1">
          <mxGeometry x="6760" y="-1120" width="450" height="30" as="geometry" />
        </mxCell>
        <mxCell id="_CsmnxEu2QW9fXy3xSoc-165" value="" style="endArrow=none;html=1;rounded=0;exitX=1;exitY=0.3333333333333333;exitDx=0;exitDy=0;exitPerimeter=0;" edge="1" parent="1" source="_CsmnxEu2QW9fXy3xSoc-163" target="_CsmnxEu2QW9fXy3xSoc-138">
          <mxGeometry width="50" height="50" relative="1" as="geometry">
            <mxPoint x="6840" y="-570" as="sourcePoint" />
            <mxPoint x="6890" y="-620" as="targetPoint" />
          </mxGeometry>
        </mxCell>
        <mxCell id="_CsmnxEu2QW9fXy3xSoc-166" value="" style="endArrow=none;html=1;rounded=0;exitX=1;exitY=0.3333333333333333;exitDx=0;exitDy=0;exitPerimeter=0;entryX=0;entryY=0.5;entryDx=0;entryDy=0;" edge="1" parent="1" source="_CsmnxEu2QW9fXy3xSoc-48" target="_CsmnxEu2QW9fXy3xSoc-43">
          <mxGeometry width="50" height="50" relative="1" as="geometry">
            <mxPoint x="1090" y="-690" as="sourcePoint" />
            <mxPoint x="1140" y="-740" as="targetPoint" />
          </mxGeometry>
        </mxCell>
        <mxCell id="_CsmnxEu2QW9fXy3xSoc-167" value="&lt;span style=&quot;font-size: 22px;&quot;&gt;5.2.3.2. Quản Lý Thông Tin Tài Khoản Nhân Viên&lt;/span&gt;" style="text;html=1;strokeColor=none;fillColor=none;align=center;verticalAlign=middle;whiteSpace=wrap;rounded=0;" vertex="1" parent="1">
          <mxGeometry x="6720" y="80" width="490" height="30" as="geometry" />
        </mxCell>
        <mxCell id="_CsmnxEu2QW9fXy3xSoc-168" value="" style="swimlane;startSize=0;" vertex="1" parent="1">
          <mxGeometry x="6760" y="200" width="720" height="680" as="geometry" />
        </mxCell>
        <mxCell id="_CsmnxEu2QW9fXy3xSoc-169" value="Quản Lý Thông Tin Tài Khoản Nhân Viên" style="ellipse;whiteSpace=wrap;html=1;" vertex="1" parent="_CsmnxEu2QW9fXy3xSoc-168">
          <mxGeometry x="80" y="280" width="120" height="80" as="geometry" />
        </mxCell>
        <mxCell id="_CsmnxEu2QW9fXy3xSoc-170" value="Tạo Tài Khoản Nhân Viên" style="ellipse;whiteSpace=wrap;html=1;" vertex="1" parent="_CsmnxEu2QW9fXy3xSoc-168">
          <mxGeometry x="360" y="80" width="120" height="80" as="geometry" />
        </mxCell>
        <mxCell id="_CsmnxEu2QW9fXy3xSoc-171" value="Sửa Thông Tin Tài Khoản Nhân Viên" style="ellipse;whiteSpace=wrap;html=1;" vertex="1" parent="_CsmnxEu2QW9fXy3xSoc-168">
          <mxGeometry x="360" y="240" width="120" height="80" as="geometry" />
        </mxCell>
        <mxCell id="_CsmnxEu2QW9fXy3xSoc-172" value="Xóa Tài Khoản Nhân Viên" style="ellipse;whiteSpace=wrap;html=1;" vertex="1" parent="_CsmnxEu2QW9fXy3xSoc-168">
          <mxGeometry x="360" y="480" width="120" height="80" as="geometry" />
        </mxCell>
        <mxCell id="_CsmnxEu2QW9fXy3xSoc-173" value="Xem Thông Tin Tài Khoản" style="ellipse;whiteSpace=wrap;html=1;" vertex="1" parent="_CsmnxEu2QW9fXy3xSoc-168">
          <mxGeometry x="520" y="360" width="120" height="80" as="geometry" />
        </mxCell>
        <mxCell id="_CsmnxEu2QW9fXy3xSoc-174" value="&amp;lt;&amp;lt;extends&amp;gt;&amp;gt;" style="endArrow=none;html=1;rounded=0;exitX=0.5;exitY=0;exitDx=0;exitDy=0;entryX=0;entryY=0.5;entryDx=0;entryDy=0;dashed=1;startArrow=open;startFill=0;" edge="1" parent="_CsmnxEu2QW9fXy3xSoc-168" source="_CsmnxEu2QW9fXy3xSoc-169" target="_CsmnxEu2QW9fXy3xSoc-170">
          <mxGeometry width="50" height="50" relative="1" as="geometry">
            <mxPoint x="230" y="210" as="sourcePoint" />
            <mxPoint x="280" y="160" as="targetPoint" />
          </mxGeometry>
        </mxCell>
        <mxCell id="_CsmnxEu2QW9fXy3xSoc-175" value="&amp;lt;&amp;lt;extends&amp;gt;&amp;gt;" style="endArrow=none;html=1;rounded=0;exitX=1;exitY=0.5;exitDx=0;exitDy=0;entryX=0;entryY=0.5;entryDx=0;entryDy=0;dashed=1;startArrow=open;startFill=0;" edge="1" parent="_CsmnxEu2QW9fXy3xSoc-168" source="_CsmnxEu2QW9fXy3xSoc-169" target="_CsmnxEu2QW9fXy3xSoc-171">
          <mxGeometry width="50" height="50" relative="1" as="geometry">
            <mxPoint x="230" y="350" as="sourcePoint" />
            <mxPoint x="280" y="300" as="targetPoint" />
          </mxGeometry>
        </mxCell>
        <mxCell id="_CsmnxEu2QW9fXy3xSoc-176" value="&amp;lt;&amp;lt;extends&amp;gt;&amp;gt;" style="endArrow=none;html=1;rounded=0;exitX=0.5;exitY=1;exitDx=0;exitDy=0;entryX=0;entryY=0.5;entryDx=0;entryDy=0;dashed=1;startArrow=open;startFill=0;" edge="1" parent="_CsmnxEu2QW9fXy3xSoc-168" source="_CsmnxEu2QW9fXy3xSoc-169" target="_CsmnxEu2QW9fXy3xSoc-172">
          <mxGeometry width="50" height="50" relative="1" as="geometry">
            <mxPoint x="200" y="420" as="sourcePoint" />
            <mxPoint x="250" y="370" as="targetPoint" />
          </mxGeometry>
        </mxCell>
        <mxCell id="_CsmnxEu2QW9fXy3xSoc-177" value="&amp;lt;&amp;lt;extends&amp;gt;&amp;gt;" style="endArrow=none;html=1;rounded=0;exitX=1;exitY=1;exitDx=0;exitDy=0;entryX=0;entryY=0.5;entryDx=0;entryDy=0;dashed=1;startArrow=open;startFill=0;" edge="1" parent="_CsmnxEu2QW9fXy3xSoc-168" source="_CsmnxEu2QW9fXy3xSoc-169" target="_CsmnxEu2QW9fXy3xSoc-173">
          <mxGeometry width="50" height="50" relative="1" as="geometry">
            <mxPoint x="370" y="420" as="sourcePoint" />
            <mxPoint x="420" y="370" as="targetPoint" />
          </mxGeometry>
        </mxCell>
        <mxCell id="_CsmnxEu2QW9fXy3xSoc-178" value="&amp;lt;&amp;lt;include&amp;gt;&amp;gt;" style="endArrow=open;html=1;rounded=0;exitX=1;exitY=0.5;exitDx=0;exitDy=0;entryX=0;entryY=0;entryDx=0;entryDy=0;endFill=0;dashed=1;" edge="1" parent="_CsmnxEu2QW9fXy3xSoc-168" source="_CsmnxEu2QW9fXy3xSoc-171" target="_CsmnxEu2QW9fXy3xSoc-173">
          <mxGeometry width="50" height="50" relative="1" as="geometry">
            <mxPoint x="520" y="300" as="sourcePoint" />
            <mxPoint x="570" y="250" as="targetPoint" />
          </mxGeometry>
        </mxCell>
        <mxCell id="_CsmnxEu2QW9fXy3xSoc-179" value="&amp;lt;&amp;lt;include&amp;gt;&amp;gt;" style="endArrow=open;html=1;rounded=0;exitX=1;exitY=0.5;exitDx=0;exitDy=0;entryX=0;entryY=1;entryDx=0;entryDy=0;dashed=1;endFill=0;" edge="1" parent="_CsmnxEu2QW9fXy3xSoc-168" source="_CsmnxEu2QW9fXy3xSoc-172" target="_CsmnxEu2QW9fXy3xSoc-173">
          <mxGeometry width="50" height="50" relative="1" as="geometry">
            <mxPoint x="560" y="560" as="sourcePoint" />
            <mxPoint x="610" y="510" as="targetPoint" />
          </mxGeometry>
        </mxCell>
        <mxCell id="_CsmnxEu2QW9fXy3xSoc-180" value="Admin" style="shape=umlActor;verticalLabelPosition=bottom;verticalAlign=top;html=1;outlineConnect=0;" vertex="1" parent="1">
          <mxGeometry x="6640" y="500" width="30" height="60" as="geometry" />
        </mxCell>
        <mxCell id="_CsmnxEu2QW9fXy3xSoc-181" value="" style="endArrow=none;html=1;rounded=0;exitX=1;exitY=0.3333333333333333;exitDx=0;exitDy=0;exitPerimeter=0;entryX=0;entryY=0.5;entryDx=0;entryDy=0;" edge="1" parent="1" source="_CsmnxEu2QW9fXy3xSoc-180" target="_CsmnxEu2QW9fXy3xSoc-169">
          <mxGeometry width="50" height="50" relative="1" as="geometry">
            <mxPoint x="6750" y="520" as="sourcePoint" />
            <mxPoint x="6800" y="470" as="targetPoint" />
          </mxGeometry>
        </mxCell>
        <mxCell id="_CsmnxEu2QW9fXy3xSoc-182" value="" style="swimlane;startSize=0;" vertex="1" parent="1">
          <mxGeometry x="8440" y="-990" width="760" height="660" as="geometry" />
        </mxCell>
        <mxCell id="_CsmnxEu2QW9fXy3xSoc-183" value="Quản Lý Tài Khoản" style="ellipse;whiteSpace=wrap;html=1;" vertex="1" parent="_CsmnxEu2QW9fXy3xSoc-182">
          <mxGeometry x="320" y="150" width="120" height="80" as="geometry" />
        </mxCell>
        <mxCell id="_CsmnxEu2QW9fXy3xSoc-184" value="Xem Thông Tin Cá Nhân" style="ellipse;whiteSpace=wrap;html=1;" vertex="1" parent="_CsmnxEu2QW9fXy3xSoc-182">
          <mxGeometry x="520" y="30" width="120" height="80" as="geometry" />
        </mxCell>
        <mxCell id="_CsmnxEu2QW9fXy3xSoc-185" value="Đổi Mật Khẩu" style="ellipse;whiteSpace=wrap;html=1;" vertex="1" parent="_CsmnxEu2QW9fXy3xSoc-182">
          <mxGeometry x="520" y="190" width="120" height="80" as="geometry" />
        </mxCell>
        <mxCell id="_CsmnxEu2QW9fXy3xSoc-186" value="&amp;lt;&amp;lt;extends&amp;gt;&amp;gt;" style="endArrow=none;html=1;rounded=0;exitX=1;exitY=0;exitDx=0;exitDy=0;entryX=0;entryY=0.625;entryDx=0;entryDy=0;entryPerimeter=0;dashed=1;startArrow=open;startFill=0;" edge="1" parent="_CsmnxEu2QW9fXy3xSoc-182" source="_CsmnxEu2QW9fXy3xSoc-183" target="_CsmnxEu2QW9fXy3xSoc-184">
          <mxGeometry width="50" height="50" relative="1" as="geometry">
            <mxPoint x="360" y="80" as="sourcePoint" />
            <mxPoint x="410" y="30" as="targetPoint" />
          </mxGeometry>
        </mxCell>
        <mxCell id="_CsmnxEu2QW9fXy3xSoc-187" value="&amp;lt;&amp;lt;extends&amp;gt;&amp;gt;" style="endArrow=none;html=1;rounded=0;exitX=1;exitY=1;exitDx=0;exitDy=0;entryX=0;entryY=0.5;entryDx=0;entryDy=0;dashed=1;startArrow=open;startFill=0;" edge="1" parent="_CsmnxEu2QW9fXy3xSoc-182" source="_CsmnxEu2QW9fXy3xSoc-183" target="_CsmnxEu2QW9fXy3xSoc-185">
          <mxGeometry width="50" height="50" relative="1" as="geometry">
            <mxPoint x="400" y="230" as="sourcePoint" />
            <mxPoint x="450" y="180" as="targetPoint" />
          </mxGeometry>
        </mxCell>
        <mxCell id="_CsmnxEu2QW9fXy3xSoc-188" value="Quản Lý Cá Nhân" style="ellipse;whiteSpace=wrap;html=1;" vertex="1" parent="_CsmnxEu2QW9fXy3xSoc-182">
          <mxGeometry x="90" y="310" width="120" height="80" as="geometry" />
        </mxCell>
        <mxCell id="_CsmnxEu2QW9fXy3xSoc-189" value="" style="endArrow=none;html=1;rounded=0;exitX=1;exitY=0;exitDx=0;exitDy=0;entryX=0;entryY=0.5;entryDx=0;entryDy=0;startArrow=block;startFill=0;" edge="1" parent="_CsmnxEu2QW9fXy3xSoc-182" source="_CsmnxEu2QW9fXy3xSoc-188" target="_CsmnxEu2QW9fXy3xSoc-183">
          <mxGeometry width="50" height="50" relative="1" as="geometry">
            <mxPoint x="-80" y="350" as="sourcePoint" />
            <mxPoint x="-30" y="300" as="targetPoint" />
          </mxGeometry>
        </mxCell>
        <mxCell id="_CsmnxEu2QW9fXy3xSoc-190" value="Quản Lý Lịch Làm Việc" style="ellipse;whiteSpace=wrap;html=1;" vertex="1" parent="_CsmnxEu2QW9fXy3xSoc-182">
          <mxGeometry x="320" y="430" width="120" height="80" as="geometry" />
        </mxCell>
        <mxCell id="_CsmnxEu2QW9fXy3xSoc-191" value="" style="endArrow=none;html=1;rounded=0;exitX=1;exitY=1;exitDx=0;exitDy=0;entryX=0;entryY=0.5;entryDx=0;entryDy=0;startArrow=block;startFill=0;" edge="1" parent="_CsmnxEu2QW9fXy3xSoc-182" source="_CsmnxEu2QW9fXy3xSoc-188" target="_CsmnxEu2QW9fXy3xSoc-190">
          <mxGeometry width="50" height="50" relative="1" as="geometry">
            <mxPoint x="160" y="480" as="sourcePoint" />
            <mxPoint x="210" y="430" as="targetPoint" />
          </mxGeometry>
        </mxCell>
        <mxCell id="_CsmnxEu2QW9fXy3xSoc-192" value="Xem Lịch Làm Việc" style="ellipse;whiteSpace=wrap;html=1;" vertex="1" parent="_CsmnxEu2QW9fXy3xSoc-182">
          <mxGeometry x="520" y="350" width="120" height="80" as="geometry" />
        </mxCell>
        <mxCell id="_CsmnxEu2QW9fXy3xSoc-193" value="Đăng Ký Tăng Ca" style="ellipse;whiteSpace=wrap;html=1;" vertex="1" parent="_CsmnxEu2QW9fXy3xSoc-182">
          <mxGeometry x="520" y="510" width="120" height="80" as="geometry" />
        </mxCell>
        <mxCell id="_CsmnxEu2QW9fXy3xSoc-194" value="&amp;lt;&amp;lt;extends&amp;gt;&amp;gt;" style="endArrow=none;html=1;rounded=0;exitX=1;exitY=0;exitDx=0;exitDy=0;entryX=0;entryY=0.5;entryDx=0;entryDy=0;dashed=1;startArrow=open;startFill=0;" edge="1" parent="_CsmnxEu2QW9fXy3xSoc-182" source="_CsmnxEu2QW9fXy3xSoc-190" target="_CsmnxEu2QW9fXy3xSoc-192">
          <mxGeometry width="50" height="50" relative="1" as="geometry">
            <mxPoint x="450" y="420" as="sourcePoint" />
            <mxPoint x="500" y="370" as="targetPoint" />
          </mxGeometry>
        </mxCell>
        <mxCell id="_CsmnxEu2QW9fXy3xSoc-195" value="&amp;lt;&amp;lt;extends&amp;gt;&amp;gt;" style="endArrow=none;html=1;rounded=0;exitX=1;exitY=1;exitDx=0;exitDy=0;entryX=0;entryY=0.5;entryDx=0;entryDy=0;dashed=1;startArrow=open;startFill=0;" edge="1" parent="_CsmnxEu2QW9fXy3xSoc-182" source="_CsmnxEu2QW9fXy3xSoc-190" target="_CsmnxEu2QW9fXy3xSoc-193">
          <mxGeometry width="50" height="50" relative="1" as="geometry">
            <mxPoint x="480" y="520" as="sourcePoint" />
            <mxPoint x="530" y="470" as="targetPoint" />
          </mxGeometry>
        </mxCell>
        <mxCell id="_CsmnxEu2QW9fXy3xSoc-196" value="&lt;span style=&quot;font-size: 22px;&quot;&gt;5.2.4.1. Quản Lý Cá Nhân&lt;/span&gt;" style="text;html=1;strokeColor=none;fillColor=none;align=center;verticalAlign=middle;whiteSpace=wrap;rounded=0;" vertex="1" parent="1">
          <mxGeometry x="8400" y="-1119" width="280" height="30" as="geometry" />
        </mxCell>
        <mxCell id="_CsmnxEu2QW9fXy3xSoc-197" value="Employee" style="shape=umlActor;verticalLabelPosition=bottom;verticalAlign=top;html=1;outlineConnect=0;" vertex="1" parent="1">
          <mxGeometry x="8320" y="-660" width="30" height="60" as="geometry" />
        </mxCell>
        <mxCell id="_CsmnxEu2QW9fXy3xSoc-198" value="" style="swimlane;startSize=0;" vertex="1" parent="1">
          <mxGeometry x="8520" y="169" width="1120" height="1000.5" as="geometry" />
        </mxCell>
        <mxCell id="_CsmnxEu2QW9fXy3xSoc-199" value="Quản Lý Dịch Vụ Khách Hàng" style="ellipse;whiteSpace=wrap;html=1;" vertex="1" parent="_CsmnxEu2QW9fXy3xSoc-198">
          <mxGeometry x="70" y="379.75" width="120" height="80" as="geometry" />
        </mxCell>
        <mxCell id="_CsmnxEu2QW9fXy3xSoc-200" value="Kiểm Tra Thông Tin" style="ellipse;whiteSpace=wrap;html=1;" vertex="1" parent="_CsmnxEu2QW9fXy3xSoc-198">
          <mxGeometry x="280" y="150.5" width="120" height="80" as="geometry" />
        </mxCell>
        <mxCell id="_CsmnxEu2QW9fXy3xSoc-201" value="Hỗ Trợ Khách Hàng" style="ellipse;whiteSpace=wrap;html=1;" vertex="1" parent="_CsmnxEu2QW9fXy3xSoc-198">
          <mxGeometry x="280" y="621" width="120" height="80" as="geometry" />
        </mxCell>
        <mxCell id="_CsmnxEu2QW9fXy3xSoc-202" value="" style="endArrow=none;html=1;rounded=0;exitX=1;exitY=0;exitDx=0;exitDy=0;entryX=0;entryY=1;entryDx=0;entryDy=0;startArrow=block;startFill=0;" edge="1" parent="_CsmnxEu2QW9fXy3xSoc-198" source="_CsmnxEu2QW9fXy3xSoc-199" target="_CsmnxEu2QW9fXy3xSoc-200">
          <mxGeometry width="50" height="50" relative="1" as="geometry">
            <mxPoint x="170" y="350.25" as="sourcePoint" />
            <mxPoint x="220" y="300.25" as="targetPoint" />
          </mxGeometry>
        </mxCell>
        <mxCell id="_CsmnxEu2QW9fXy3xSoc-203" value="" style="endArrow=none;html=1;rounded=0;exitX=1;exitY=1;exitDx=0;exitDy=0;entryX=0;entryY=0;entryDx=0;entryDy=0;startArrow=block;startFill=0;" edge="1" parent="_CsmnxEu2QW9fXy3xSoc-198" source="_CsmnxEu2QW9fXy3xSoc-199" target="_CsmnxEu2QW9fXy3xSoc-201">
          <mxGeometry width="50" height="50" relative="1" as="geometry">
            <mxPoint x="220" y="540.25" as="sourcePoint" />
            <mxPoint x="270" y="490.25" as="targetPoint" />
          </mxGeometry>
        </mxCell>
        <mxCell id="_CsmnxEu2QW9fXy3xSoc-204" value="Kiểm Tra Thông Tin Phòng" style="ellipse;whiteSpace=wrap;html=1;" vertex="1" parent="_CsmnxEu2QW9fXy3xSoc-198">
          <mxGeometry x="520" y="30.5" width="120" height="80" as="geometry" />
        </mxCell>
        <mxCell id="_CsmnxEu2QW9fXy3xSoc-205" value="Kiểm Tra Thông Tin Dịch Vụ" style="ellipse;whiteSpace=wrap;html=1;" vertex="1" parent="_CsmnxEu2QW9fXy3xSoc-198">
          <mxGeometry x="520" y="150.5" width="120" height="80" as="geometry" />
        </mxCell>
        <mxCell id="_CsmnxEu2QW9fXy3xSoc-206" value="Kiểm Tra Thông Tin Khách Hàng" style="ellipse;whiteSpace=wrap;html=1;" vertex="1" parent="_CsmnxEu2QW9fXy3xSoc-198">
          <mxGeometry x="520" y="270.5" width="120" height="80" as="geometry" />
        </mxCell>
        <mxCell id="_CsmnxEu2QW9fXy3xSoc-207" value="Đăng Ký Phòng" style="ellipse;whiteSpace=wrap;html=1;" vertex="1" parent="_CsmnxEu2QW9fXy3xSoc-198">
          <mxGeometry x="520" y="391" width="120" height="80" as="geometry" />
        </mxCell>
        <mxCell id="_CsmnxEu2QW9fXy3xSoc-208" value="Đăng Ký Dịch Vụ" style="ellipse;whiteSpace=wrap;html=1;" vertex="1" parent="_CsmnxEu2QW9fXy3xSoc-198">
          <mxGeometry x="520" y="511" width="120" height="80" as="geometry" />
        </mxCell>
        <mxCell id="_CsmnxEu2QW9fXy3xSoc-209" value="In Hóa Đơn" style="ellipse;whiteSpace=wrap;html=1;" vertex="1" parent="_CsmnxEu2QW9fXy3xSoc-198">
          <mxGeometry x="520" y="871" width="120" height="80" as="geometry" />
        </mxCell>
        <mxCell id="_CsmnxEu2QW9fXy3xSoc-210" value="Kiểm Tra Thông Tin Cá Nhân Khách Hàng" style="ellipse;whiteSpace=wrap;html=1;" vertex="1" parent="_CsmnxEu2QW9fXy3xSoc-198">
          <mxGeometry x="800" y="190.5" width="120" height="80" as="geometry" />
        </mxCell>
        <mxCell id="_CsmnxEu2QW9fXy3xSoc-211" value="Kiểm Tra Thông Tin Room, Dịch Vụ Khách Hàng Đăng Ký" style="ellipse;whiteSpace=wrap;html=1;" vertex="1" parent="_CsmnxEu2QW9fXy3xSoc-198">
          <mxGeometry x="800" y="350.5" width="120" height="80" as="geometry" />
        </mxCell>
        <mxCell id="_CsmnxEu2QW9fXy3xSoc-212" value="&amp;lt;&amp;lt;extends&amp;gt;&amp;gt;" style="endArrow=none;html=1;rounded=0;exitX=1;exitY=0;exitDx=0;exitDy=0;entryX=0;entryY=0.5;entryDx=0;entryDy=0;dashed=1;startArrow=open;startFill=0;" edge="1" parent="_CsmnxEu2QW9fXy3xSoc-198" source="_CsmnxEu2QW9fXy3xSoc-206" target="_CsmnxEu2QW9fXy3xSoc-210">
          <mxGeometry width="50" height="50" relative="1" as="geometry">
            <mxPoint x="710" y="290.5" as="sourcePoint" />
            <mxPoint x="760" y="240.5" as="targetPoint" />
          </mxGeometry>
        </mxCell>
        <mxCell id="_CsmnxEu2QW9fXy3xSoc-213" value="&amp;lt;&amp;lt;extends&amp;gt;&amp;gt;" style="endArrow=none;html=1;rounded=0;exitX=1;exitY=1;exitDx=0;exitDy=0;entryX=0;entryY=0.5;entryDx=0;entryDy=0;dashed=1;startArrow=open;startFill=0;" edge="1" parent="_CsmnxEu2QW9fXy3xSoc-198" source="_CsmnxEu2QW9fXy3xSoc-206" target="_CsmnxEu2QW9fXy3xSoc-211">
          <mxGeometry width="50" height="50" relative="1" as="geometry">
            <mxPoint x="700" y="340.5" as="sourcePoint" />
            <mxPoint x="750" y="290.5" as="targetPoint" />
          </mxGeometry>
        </mxCell>
        <mxCell id="_CsmnxEu2QW9fXy3xSoc-214" value="" style="endArrow=none;html=1;rounded=0;exitX=1;exitY=0;exitDx=0;exitDy=0;entryX=0;entryY=0.5;entryDx=0;entryDy=0;startArrow=block;startFill=0;" edge="1" parent="_CsmnxEu2QW9fXy3xSoc-198" source="_CsmnxEu2QW9fXy3xSoc-200" target="_CsmnxEu2QW9fXy3xSoc-204">
          <mxGeometry width="50" height="50" relative="1" as="geometry">
            <mxPoint x="460" y="120.5" as="sourcePoint" />
            <mxPoint x="510" y="70.5" as="targetPoint" />
          </mxGeometry>
        </mxCell>
        <mxCell id="_CsmnxEu2QW9fXy3xSoc-215" value="" style="endArrow=none;html=1;rounded=0;exitX=1;exitY=0.5;exitDx=0;exitDy=0;entryX=0;entryY=0.5;entryDx=0;entryDy=0;startArrow=block;startFill=0;" edge="1" parent="_CsmnxEu2QW9fXy3xSoc-198" source="_CsmnxEu2QW9fXy3xSoc-200" target="_CsmnxEu2QW9fXy3xSoc-205">
          <mxGeometry width="50" height="50" relative="1" as="geometry">
            <mxPoint x="460" y="240.5" as="sourcePoint" />
            <mxPoint x="510" y="190.5" as="targetPoint" />
          </mxGeometry>
        </mxCell>
        <mxCell id="_CsmnxEu2QW9fXy3xSoc-216" value="" style="endArrow=none;html=1;rounded=0;exitX=1;exitY=1;exitDx=0;exitDy=0;entryX=0;entryY=0.5;entryDx=0;entryDy=0;startArrow=block;startFill=0;" edge="1" parent="_CsmnxEu2QW9fXy3xSoc-198" source="_CsmnxEu2QW9fXy3xSoc-200" target="_CsmnxEu2QW9fXy3xSoc-206">
          <mxGeometry width="50" height="50" relative="1" as="geometry">
            <mxPoint x="420" y="310.5" as="sourcePoint" />
            <mxPoint x="470" y="260.5" as="targetPoint" />
          </mxGeometry>
        </mxCell>
        <mxCell id="_CsmnxEu2QW9fXy3xSoc-217" value="" style="endArrow=none;html=1;rounded=0;exitX=1;exitY=0;exitDx=0;exitDy=0;entryX=0;entryY=0.5;entryDx=0;entryDy=0;startArrow=block;startFill=0;" edge="1" parent="_CsmnxEu2QW9fXy3xSoc-198" source="_CsmnxEu2QW9fXy3xSoc-201" target="_CsmnxEu2QW9fXy3xSoc-207">
          <mxGeometry width="50" height="50" relative="1" as="geometry">
            <mxPoint x="460" y="540.5" as="sourcePoint" />
            <mxPoint x="510" y="490.5" as="targetPoint" />
          </mxGeometry>
        </mxCell>
        <mxCell id="_CsmnxEu2QW9fXy3xSoc-218" value="" style="endArrow=none;html=1;rounded=0;exitX=1;exitY=0.5;exitDx=0;exitDy=0;entryX=0;entryY=0.5;entryDx=0;entryDy=0;startArrow=block;startFill=0;" edge="1" parent="_CsmnxEu2QW9fXy3xSoc-198" source="_CsmnxEu2QW9fXy3xSoc-201" target="_CsmnxEu2QW9fXy3xSoc-208">
          <mxGeometry width="50" height="50" relative="1" as="geometry">
            <mxPoint x="400" y="640.5" as="sourcePoint" />
            <mxPoint x="450" y="590.5" as="targetPoint" />
          </mxGeometry>
        </mxCell>
        <mxCell id="_CsmnxEu2QW9fXy3xSoc-219" value="" style="endArrow=none;html=1;rounded=0;exitX=1;exitY=1;exitDx=0;exitDy=0;entryX=0.017;entryY=0.619;entryDx=0;entryDy=0;entryPerimeter=0;startArrow=block;startFill=0;" edge="1" parent="_CsmnxEu2QW9fXy3xSoc-198" source="_CsmnxEu2QW9fXy3xSoc-201" target="_CsmnxEu2QW9fXy3xSoc-209">
          <mxGeometry width="50" height="50" relative="1" as="geometry">
            <mxPoint x="410" y="750.5" as="sourcePoint" />
            <mxPoint x="460" y="700.5" as="targetPoint" />
          </mxGeometry>
        </mxCell>
        <mxCell id="_CsmnxEu2QW9fXy3xSoc-224" value="Đổi Phòng" style="ellipse;whiteSpace=wrap;html=1;" vertex="1" parent="_CsmnxEu2QW9fXy3xSoc-198">
          <mxGeometry x="520" y="631" width="120" height="80" as="geometry" />
        </mxCell>
        <mxCell id="_CsmnxEu2QW9fXy3xSoc-225" value="Hủy Phòng, Hủy Dịch Vụ" style="ellipse;whiteSpace=wrap;html=1;" vertex="1" parent="_CsmnxEu2QW9fXy3xSoc-198">
          <mxGeometry x="520" y="751" width="120" height="80" as="geometry" />
        </mxCell>
        <mxCell id="_CsmnxEu2QW9fXy3xSoc-226" value="" style="endArrow=none;html=1;rounded=0;exitX=1;exitY=0.5;exitDx=0;exitDy=0;entryX=0;entryY=0.5;entryDx=0;entryDy=0;startArrow=block;startFill=0;" edge="1" parent="_CsmnxEu2QW9fXy3xSoc-198" source="_CsmnxEu2QW9fXy3xSoc-201" target="_CsmnxEu2QW9fXy3xSoc-224">
          <mxGeometry width="50" height="50" relative="1" as="geometry">
            <mxPoint x="460" y="701" as="sourcePoint" />
            <mxPoint x="510" y="651" as="targetPoint" />
          </mxGeometry>
        </mxCell>
        <mxCell id="_CsmnxEu2QW9fXy3xSoc-227" value="" style="endArrow=none;html=1;rounded=0;exitX=1;exitY=0.5;exitDx=0;exitDy=0;entryX=0;entryY=0.5;entryDx=0;entryDy=0;startArrow=block;startFill=0;" edge="1" parent="_CsmnxEu2QW9fXy3xSoc-198" source="_CsmnxEu2QW9fXy3xSoc-201" target="_CsmnxEu2QW9fXy3xSoc-225">
          <mxGeometry width="50" height="50" relative="1" as="geometry">
            <mxPoint x="450" y="761" as="sourcePoint" />
            <mxPoint x="500" y="711" as="targetPoint" />
          </mxGeometry>
        </mxCell>
        <mxCell id="_CsmnxEu2QW9fXy3xSoc-230" value="&lt;span style=&quot;font-size: 22px;&quot;&gt;5.2.4.2. Quản Lý Dịch Vụ Khách Hàng&lt;/span&gt;" style="text;html=1;strokeColor=none;fillColor=none;align=center;verticalAlign=middle;whiteSpace=wrap;rounded=0;" vertex="1" parent="1">
          <mxGeometry x="8400" y="50.5" width="390" height="30" as="geometry" />
        </mxCell>
        <mxCell id="_CsmnxEu2QW9fXy3xSoc-231" value="Employee" style="shape=umlActor;verticalLabelPosition=bottom;verticalAlign=top;html=1;outlineConnect=0;" vertex="1" parent="1">
          <mxGeometry x="8360" y="569.25" width="30" height="60" as="geometry" />
        </mxCell>
        <mxCell id="_CsmnxEu2QW9fXy3xSoc-232" value="" style="endArrow=none;html=1;rounded=0;exitX=1;exitY=0.3333333333333333;exitDx=0;exitDy=0;exitPerimeter=0;entryX=0;entryY=0.5;entryDx=0;entryDy=0;" edge="1" parent="1" source="_CsmnxEu2QW9fXy3xSoc-231" target="_CsmnxEu2QW9fXy3xSoc-199">
          <mxGeometry width="50" height="50" relative="1" as="geometry">
            <mxPoint x="8430" y="619.25" as="sourcePoint" />
            <mxPoint x="8480" y="569.25" as="targetPoint" />
          </mxGeometry>
        </mxCell>
        <mxCell id="_CsmnxEu2QW9fXy3xSoc-233" value="" style="endArrow=none;html=1;rounded=0;exitX=1;exitY=0.3333333333333333;exitDx=0;exitDy=0;exitPerimeter=0;entryX=0;entryY=0.5;entryDx=0;entryDy=0;" edge="1" parent="1" source="_CsmnxEu2QW9fXy3xSoc-197" target="_CsmnxEu2QW9fXy3xSoc-188">
          <mxGeometry width="50" height="50" relative="1" as="geometry">
            <mxPoint x="8450" y="-600" as="sourcePoint" />
            <mxPoint x="8500" y="-650" as="targetPoint" />
          </mxGeometry>
        </mxCell>
        <mxCell id="_CsmnxEu2QW9fXy3xSoc-234" value="" style="swimlane;startSize=0;" vertex="1" parent="1">
          <mxGeometry x="10120" y="-940" width="840" height="460" as="geometry" />
        </mxCell>
        <mxCell id="_CsmnxEu2QW9fXy3xSoc-235" value="Quản Lý Nhân Viên" style="ellipse;whiteSpace=wrap;html=1;" vertex="1" parent="_CsmnxEu2QW9fXy3xSoc-234">
          <mxGeometry x="40" y="210" width="120" height="80" as="geometry" />
        </mxCell>
        <mxCell id="_CsmnxEu2QW9fXy3xSoc-236" value="Quản Lý Lịch Làm Việc Nhân Viên" style="ellipse;whiteSpace=wrap;html=1;" vertex="1" parent="_CsmnxEu2QW9fXy3xSoc-234">
          <mxGeometry x="200" y="100" width="120" height="80" as="geometry" />
        </mxCell>
        <mxCell id="_CsmnxEu2QW9fXy3xSoc-237" value="Xem Lịch Làm Việc Tất Cả Nhân Viên" style="ellipse;whiteSpace=wrap;html=1;" vertex="1" parent="_CsmnxEu2QW9fXy3xSoc-234">
          <mxGeometry x="440" y="20" width="120" height="80" as="geometry" />
        </mxCell>
        <mxCell id="_CsmnxEu2QW9fXy3xSoc-238" value="Sắp Xếp Lịch Làm Việc Của Nhân Viên" style="ellipse;whiteSpace=wrap;html=1;" vertex="1" parent="_CsmnxEu2QW9fXy3xSoc-234">
          <mxGeometry x="400" y="260" width="120" height="80" as="geometry" />
        </mxCell>
        <mxCell id="_CsmnxEu2QW9fXy3xSoc-239" value="Xem Đăng Ký Tăng Ca" style="ellipse;whiteSpace=wrap;html=1;" vertex="1" parent="_CsmnxEu2QW9fXy3xSoc-234">
          <mxGeometry x="640" y="180" width="120" height="80" as="geometry" />
        </mxCell>
        <mxCell id="_CsmnxEu2QW9fXy3xSoc-240" value="Sắp Xếp Lịch Làm Việc" style="ellipse;whiteSpace=wrap;html=1;" vertex="1" parent="_CsmnxEu2QW9fXy3xSoc-234">
          <mxGeometry x="640" y="340" width="120" height="80" as="geometry" />
        </mxCell>
        <mxCell id="_CsmnxEu2QW9fXy3xSoc-241" value="" style="endArrow=none;html=1;rounded=0;exitX=1;exitY=0;exitDx=0;exitDy=0;entryX=0;entryY=0.5;entryDx=0;entryDy=0;startArrow=block;startFill=0;" edge="1" parent="_CsmnxEu2QW9fXy3xSoc-234" source="_CsmnxEu2QW9fXy3xSoc-235" target="_CsmnxEu2QW9fXy3xSoc-236">
          <mxGeometry width="50" height="50" relative="1" as="geometry">
            <mxPoint x="150" y="190" as="sourcePoint" />
            <mxPoint x="200" y="140" as="targetPoint" />
          </mxGeometry>
        </mxCell>
        <mxCell id="_CsmnxEu2QW9fXy3xSoc-242" value="&amp;lt;&amp;lt;extends&amp;gt;&amp;gt;" style="endArrow=none;html=1;rounded=0;exitX=1;exitY=0;exitDx=0;exitDy=0;entryX=0;entryY=0.5;entryDx=0;entryDy=0;dashed=1;startArrow=open;startFill=0;" edge="1" parent="_CsmnxEu2QW9fXy3xSoc-234" source="_CsmnxEu2QW9fXy3xSoc-236" target="_CsmnxEu2QW9fXy3xSoc-237">
          <mxGeometry width="50" height="50" relative="1" as="geometry">
            <mxPoint x="380" y="100" as="sourcePoint" />
            <mxPoint x="430" y="50" as="targetPoint" />
          </mxGeometry>
        </mxCell>
        <mxCell id="_CsmnxEu2QW9fXy3xSoc-243" value="&amp;lt;&amp;lt;extends&amp;gt;&amp;gt;" style="endArrow=none;html=1;rounded=0;entryX=0;entryY=0.5;entryDx=0;entryDy=0;dashed=1;startArrow=open;startFill=0;" edge="1" parent="_CsmnxEu2QW9fXy3xSoc-234" source="_CsmnxEu2QW9fXy3xSoc-236" target="_CsmnxEu2QW9fXy3xSoc-238">
          <mxGeometry width="50" height="50" relative="1" as="geometry">
            <mxPoint x="490" y="210" as="sourcePoint" />
            <mxPoint x="540" y="160" as="targetPoint" />
          </mxGeometry>
        </mxCell>
        <mxCell id="_CsmnxEu2QW9fXy3xSoc-244" value="&amp;lt;&amp;lt;extends&amp;gt;&amp;gt;" style="endArrow=none;html=1;rounded=0;exitX=1;exitY=0;exitDx=0;exitDy=0;entryX=0;entryY=0.5;entryDx=0;entryDy=0;dashed=1;startArrow=open;startFill=0;" edge="1" parent="_CsmnxEu2QW9fXy3xSoc-234" source="_CsmnxEu2QW9fXy3xSoc-238" target="_CsmnxEu2QW9fXy3xSoc-239">
          <mxGeometry width="50" height="50" relative="1" as="geometry">
            <mxPoint x="590" y="270" as="sourcePoint" />
            <mxPoint x="640" y="220" as="targetPoint" />
          </mxGeometry>
        </mxCell>
        <mxCell id="_CsmnxEu2QW9fXy3xSoc-245" value="&amp;lt;&amp;lt;extends&amp;gt;&amp;gt;" style="endArrow=none;html=1;rounded=0;exitX=1;exitY=1;exitDx=0;exitDy=0;entryX=0;entryY=0.5;entryDx=0;entryDy=0;dashed=1;startArrow=open;startFill=0;" edge="1" parent="_CsmnxEu2QW9fXy3xSoc-234" source="_CsmnxEu2QW9fXy3xSoc-238" target="_CsmnxEu2QW9fXy3xSoc-240">
          <mxGeometry width="50" height="50" relative="1" as="geometry">
            <mxPoint x="550" y="350" as="sourcePoint" />
            <mxPoint x="600" y="300" as="targetPoint" />
          </mxGeometry>
        </mxCell>
        <mxCell id="_CsmnxEu2QW9fXy3xSoc-246" value="&lt;font style=&quot;font-size: 22px;&quot;&gt;5.2.5.1. Quản Lý Nhân Viên&lt;/font&gt;" style="text;html=1;strokeColor=none;fillColor=none;align=center;verticalAlign=middle;whiteSpace=wrap;rounded=0;" vertex="1" parent="1">
          <mxGeometry x="10000" y="-1110" width="290" height="30" as="geometry" />
        </mxCell>
        <mxCell id="_CsmnxEu2QW9fXy3xSoc-247" value="Manager" style="shape=umlActor;verticalLabelPosition=bottom;verticalAlign=top;html=1;outlineConnect=0;" vertex="1" parent="1">
          <mxGeometry x="9990" y="-710" width="30" height="60" as="geometry" />
        </mxCell>
        <mxCell id="_CsmnxEu2QW9fXy3xSoc-248" value="" style="endArrow=none;html=1;rounded=0;exitX=1;exitY=0.3333333333333333;exitDx=0;exitDy=0;exitPerimeter=0;entryX=0;entryY=0.5;entryDx=0;entryDy=0;" edge="1" parent="1" source="_CsmnxEu2QW9fXy3xSoc-247" target="_CsmnxEu2QW9fXy3xSoc-235">
          <mxGeometry width="50" height="50" relative="1" as="geometry">
            <mxPoint x="10070" y="-640" as="sourcePoint" />
            <mxPoint x="10120" y="-690" as="targetPoint" />
          </mxGeometry>
        </mxCell>
        <mxCell id="_CsmnxEu2QW9fXy3xSoc-249" value="&lt;font style=&quot;font-size: 22px;&quot;&gt;5.2.5.2. Phê Duyệt Yêu Cầu&lt;/font&gt;" style="text;html=1;strokeColor=none;fillColor=none;align=center;verticalAlign=middle;whiteSpace=wrap;rounded=0;" vertex="1" parent="1">
          <mxGeometry x="10000" y="50" width="290" height="30" as="geometry" />
        </mxCell>
        <mxCell id="_CsmnxEu2QW9fXy3xSoc-250" value="" style="swimlane;startSize=0;" vertex="1" parent="1">
          <mxGeometry x="10120" y="200" width="600" height="600" as="geometry" />
        </mxCell>
        <mxCell id="_CsmnxEu2QW9fXy3xSoc-251" value="Phê Duyệt Yêu Cầu" style="ellipse;whiteSpace=wrap;html=1;" vertex="1" parent="_CsmnxEu2QW9fXy3xSoc-250">
          <mxGeometry x="30" y="240" width="120" height="80" as="geometry" />
        </mxCell>
        <mxCell id="_CsmnxEu2QW9fXy3xSoc-252" value="Phê Duyệt Yêu Cầu" style="ellipse;whiteSpace=wrap;html=1;" vertex="1" parent="_CsmnxEu2QW9fXy3xSoc-250">
          <mxGeometry x="200" y="130" width="120" height="80" as="geometry" />
        </mxCell>
        <mxCell id="_CsmnxEu2QW9fXy3xSoc-253" value="Manager" style="shape=umlActor;verticalLabelPosition=bottom;verticalAlign=top;html=1;outlineConnect=0;" vertex="1" parent="1">
          <mxGeometry x="9960" y="440" width="30" height="60" as="geometry" />
        </mxCell>
      </root>
    </mxGraphModel>
  </diagram>
</mxfile>
